<?xml version="1.0" encoding="UTF-8" standalone="no"?>
<!-- Created with Inkscape (http://www.inkscape.org/) -->

<svg
   xmlns:dc="http://purl.org/dc/elements/1.1/"
   xmlns:cc="http://creativecommons.org/ns#"
   xmlns:rdf="http://www.w3.org/1999/02/22-rdf-syntax-ns#"
   xmlns:svg="http://www.w3.org/2000/svg"
   xmlns="http://www.w3.org/2000/svg"
   xmlns:sodipodi="http://sodipodi.sourceforge.net/DTD/sodipodi-0.dtd"
   xmlns:inkscape="http://www.inkscape.org/namespaces/inkscape"
   viewBox="0 0 209.65466 54.179207"
   version="1.1"
   id="svg8"
   inkscape:version="0.92.4 (5da689c313, 2019-01-14)"
   sodipodi:docname="flag.svg">
  <defs
     id="defs2" />
  <sodipodi:namedview
     id="base"
     pagecolor="#ffffff"
     bordercolor="#666666"
     borderopacity="1.0"
     inkscape:pageopacity="0.0"
     inkscape:pageshadow="2"
     inkscape:zoom="0.7"
     inkscape:cx="467.11318"
     inkscape:cy="266.18645"
     inkscape:document-units="mm"
     inkscape:current-layer="layer1"
     showgrid="false"
     inkscape:window-width="1920"
     inkscape:window-height="1001"
     inkscape:window-x="-9"
     inkscape:window-y="-9"
     inkscape:window-maximized="1"
     showborder="true"
     fit-margin-top="0"
     fit-margin-left="0"
     fit-margin-right="0"
     fit-margin-bottom="0" />
  <metadata
     id="metadata5">
    <rdf:RDF>
      <cc:Work
         rdf:about="">
        <dc:format>image/svg+xml</dc:format>
        <dc:type
           rdf:resource="http://purl.org/dc/dcmitype/StillImage" />
        <dc:title></dc:title>
      </cc:Work>
    </rdf:RDF>
  </metadata>
  <g
     inkscape:label="Layer 1"
     inkscape:groupmode="layer"
     id="layer1"
     transform="translate(-0.18440176,-115.61203)">
    <g
       id="g889"
       transform="matrix(1.2789465,0,0,1.2806699,-15.42675,-149.11959)"
       style="stroke-width:0.78136724">
      <path
         sodipodi:nodetypes="ccccccccscc"
         inkscape:connector-curvature="0"
         id="path873"
         d="m 12.309627,227.86695 v -21.05018 l 81.782991,0.006 81.782972,0.006 -1.41286,1.34635 c -6.32028,6.0226 -19.81849,19.23221 -19.83065,19.40664 -0.008,0.11979 10.56562,10.70462 10.56562,10.70462 l 10.58084,10.55791 c 0,0 -36.78051,0.0711 -81.73446,0.0711 H 12.309627 Z"
         style="fill:#a99c6a;fill-opacity:1;stroke:#a99c6a;stroke-width:0.20673673;stroke-opacity:1" />
      <path
         sodipodi:nodetypes="ccccscccscccccc"
         inkscape:connector-curvature="0"
         id="path885"
         d="m 81.697821,247.52682 -67.799488,-0.0478 v -19.6545 -19.6545 h 79.322518 c 77.308929,0 79.422249,0.0677 79.422249,0.0677 l -3.9635,3.53603 c 0,0 -11.40077,10.72133 -14.88119,14.0455 -0.85842,0.81989 -1.56077,1.58615 -1.56077,1.70281 0,0.25442 4.86595,5.08974 12.47321,12.39468 3.06633,2.94448 6.12715,5.8932 6.80182,6.55271 l 1.22667,1.19913 -11.62101,-0.047 c -6.39156,-0.0259 -42.13079,-0.0685 -79.420509,-0.0948 z"
         style="fill:#483e3b;fill-opacity:1;stroke:#483e3b;stroke-width:0.20673673;stroke-opacity:1" />
    </g>
  </g>
</svg>
