<?xml version="1.0" encoding="UTF-8" standalone="no"?>
<!-- Created with Inkscape (http://www.inkscape.org/) -->

<svg
   xmlns:dc="http://purl.org/dc/elements/1.1/"
   xmlns:cc="http://creativecommons.org/ns#"
   xmlns:rdf="http://www.w3.org/1999/02/22-rdf-syntax-ns#"
   xmlns:svg="http://www.w3.org/2000/svg"
   xmlns="http://www.w3.org/2000/svg"
   xmlns:sodipodi="http://sodipodi.sourceforge.net/DTD/sodipodi-0.dtd"
   xmlns:inkscape="http://www.inkscape.org/namespaces/inkscape"
   width="210mm"
   height="297mm"
   viewBox="0 0 210 297"
   version="1.1"
   id="svg8"
   inkscape:version="0.92.4 (5da689c313, 2019-01-14)"
   sodipodi:docname="contactman.svg">
  <defs
     id="defs2" />
  <sodipodi:namedview
     id="base"
     pagecolor="#ffffff"
     bordercolor="#666666"
     borderopacity="1.0"
     inkscape:pageopacity="0.0"
     inkscape:pageshadow="2"
     inkscape:zoom="0.35"
     inkscape:cx="-463.22554"
     inkscape:cy="953.96709"
     inkscape:document-units="mm"
     inkscape:current-layer="layer1"
     showgrid="false"
     inkscape:window-width="1920"
     inkscape:window-height="1001"
     inkscape:window-x="-9"
     inkscape:window-y="-9"
     inkscape:window-maximized="1" />
  <metadata
     id="metadata5">
    <rdf:RDF>
      <cc:Work
         rdf:about="">
        <dc:format>image/svg+xml</dc:format>
        <dc:type
           rdf:resource="http://purl.org/dc/dcmitype/StillImage" />
        <dc:title></dc:title>
      </cc:Work>
    </rdf:RDF>
  </metadata>
  <g
     inkscape:label="Layer 1"
     inkscape:groupmode="layer"
     id="layer1">
    <g
       id="g867"
       transform="matrix(2.3102153,0,0,2.3102153,-61.4697,-167.00986)"
       style="stroke-width:0.43286008">
      <path
         id="path815"
         transform="scale(0.26458333)"
         style="fill:#474b4f;stroke-width:0.43286005"
         d="m 359.50195,313.05664 c -3.89081,-0.1062 -7.7169,1.86482 -9.80273,5.4707 l -4.37891,7.55469 c 1.34415,2.95712 2.4799,6.02971 3.39063,9.19531 l 5.67773,-9.80273 37.58008,21.76953 -30.70508,53.00977 -19.78125,-11.45313 c -1.08629,1.77759 -2.24954,3.50095 -3.49219,5.16602 0.51297,0.10696 1.01916,0.27194 1.50196,0.54882 2.40575,1.39352 3.22007,4.46811 1.83203,6.8711 -1.39352,2.40578 -4.46926,3.22558 -6.875,1.83203 -1.05063,-0.60624 -1.77453,-1.54116 -2.16406,-2.5918 -2.41124,2.48255 -5.00834,4.78355 -7.77344,6.8711 l 21.41016,12.40429 c 5.24491,3.03394 11.95667,1.24884 14.99609,-3.99609 l 4.19531,-7.24219 c 11.53498,14.78291 19.72468,26.66699 25.06836,35.75782 1.30299,2.20278 2.43403,4.23974 3.40234,6.0996 -0.35943,-0.10166 -0.72385,-0.20553 -1.08593,-0.3125 -8.92075,-2.56486 -19.29325,-6.81395 -27.13867,-10.38281 -3.94466,-1.78031 -7.27462,-3.39361 -9.58985,-4.54297 -1.15212,-0.56783 -2.0567,-1.02479 -2.64648,-1.33203 -0.59527,-0.3016 -0.81641,-0.42578 -0.81641,-0.42578 -3.18206,-1.67607 -6.64865,-2.5293 -10.24219,-2.5293 h -19.88281 c -0.89427,0 -1.77105,0.0695 -2.64062,0.17383 h -84.46875 c -0.0166,-0.003 -0.0324,-0.004 -0.0488,-0.008 -0.82021,-0.10432 -2.13152,-0.2207 -3.87891,-0.2207 -7.79056,-0.21393 -25.74464,3.03447 -41.69336,19.71289 -13.96815,14.47014 -26.10835,37.29613 -33.74805,73.77734 -1.11372,5.31353 -2.13261,10.90764 -3.04882,16.81641 0,0.0151 -1.9e-4,0.0339 -0.006,0.0547 -3.3494,21.71211 -5.29883,47.68027 -5.29883,78.98243 0,16.06117 0.51518,33.53479 1.62891,52.55859 0.68578,11.65844 10.35681,20.65468 21.89453,20.66016 0.43342,0 0.86109,-0.0162 1.30273,-0.0449 12.09732,-0.70771 21.32688,-11.08937 20.61914,-23.18945 -1.07257,-18.24472 -1.55822,-34.86054 -1.55273,-49.98633 -0.006,-29.42857 1.84337,-53.19224 4.76758,-72.20508 0.011,-0.0465 0.0217,-0.0879 0.0273,-0.13476 0.86135,-5.60428 1.82288,-10.74835 2.85156,-15.53516 3.22595,-15.04894 7.14336,-26.23233 11.04688,-34.43164 v 84.51953 l -12.53711,8.49024 c -0.16184,3.34114 -0.28835,6.74988 -0.39258,10.20898 l 11.76562,-7.96875 49.22657,72.67774 -91.98633,62.30078 -49.2207,-72.68164 25.30468,-17.14063 c -0.0741,-3.31374 -0.12723,-6.59314 -0.16015,-9.83008 l -36.57813,24.77735 58.45899,86.30078 113.95312,-78.44517 c 20.98696,-13.34305 0,0 0,0 l 35.10662,0.0584 51.77825,0.0474 -6.33604,-176.72109 c 6.78383,2.77334 14.26082,5.56041 21.98828,7.79883 8.22399,2.33167 16.51493,4.20021 25.63867,4.25781 6.80852,-0.0934 14.95115,-0.91069 23.38086,-6.83593 4.10926,-2.93519 7.82069,-7.34724 10.02344,-12.23829 2.23842,-4.89104 3.05859,-9.96796 3.05859,-14.60937 -0.34847,-13.91603 -5.63124,-25.43989 -14.41211,-40.79883 -8.58882,-14.56891 -21.26458,-32.16927 -39.28711,-54.21875 l 11.625,-20.0664 c 3.03667,-5.24492 1.24922,-11.95747 -3.99023,-14.99415 L 364.6893,314.5293 c -1.63732,-0.94811 -3.41894,-1.42439 -5.1875,-1.47266 z m -85.80468,140.56055 h 10.42578 10.42187 l 5.21094,20.57226 -0.79102,1.25196 c -4.29578,3.58253 -9.55885,5.37538 -14.84765,5.38086 -5.28881,-0.004 -10.54369,-1.79676 -14.83399,-5.3711 l -0.79882,-1.26172 z m 21.4707,33.40625 15.01953,110.61133 -26.06445,32.91796 -26.0586,-32.91796 15.00782,-110.60938 c 3.55787,1.33319 7.30051,2.0301 11.04492,2.02734 h 0.006 0.0176 c 3.73893,0 7.47496,-0.69614 11.02735,-2.02929 z"
         inkscape:connector-curvature="0"
         sodipodi:nodetypes="ccccccccccccccccccccccccssccccccccscccccccccccccccccccccccccccccccccccccccccccccccccccccscc" />
      <rect
         style="fill:#474b4f;stroke-width:0.11452907"
         height="13.943404"
         transform="rotate(-34.896267)"
         width="1.4516063"
         x="-51.255909"
         y="165.13763"
         id="rect817" />
      <path
         style="fill:#474b4f;stroke-width:0.11452756"
         inkscape:connector-curvature="0"
         d="m 56.526539,178.813 -4.290891,-6.14239 c 0.03702,0.8949 0.07911,1.79996 0.126288,2.71374 l 2.975754,4.26041 z"
         id="path819" />
      <circle
         style="fill:#474b4f;stroke-width:0.11452756"
         cx="75.174355"
         cy="93.614265"
         r="16.330355"
         id="circle823" />
    </g>
  </g>
</svg>
