<?xml version="1.0" encoding="UTF-8" standalone="no"?>
<!-- Created with Inkscape (http://www.inkscape.org/) -->

<svg
   xmlns:dc="http://purl.org/dc/elements/1.1/"
   xmlns:cc="http://creativecommons.org/ns#"
   xmlns:rdf="http://www.w3.org/1999/02/22-rdf-syntax-ns#"
   xmlns:svg="http://www.w3.org/2000/svg"
   xmlns="http://www.w3.org/2000/svg"
   xmlns:sodipodi="http://sodipodi.sourceforge.net/DTD/sodipodi-0.dtd"
   xmlns:inkscape="http://www.inkscape.org/namespaces/inkscape"
   width="206.80826mm"
   height="234.54317mm"
   viewBox="0 0 206.80826 234.54317"
   version="1.1"
   id="svg8"
   sodipodi:docname="cssLogo.svg"
   inkscape:version="0.92.4 (5da689c313, 2019-01-14)">
  <defs
     id="defs2" />
  <sodipodi:namedview
     id="base"
     pagecolor="#ffffff"
     bordercolor="#666666"
     borderopacity="1.0"
     inkscape:pageopacity="0.0"
     inkscape:pageshadow="2"
     inkscape:zoom="0.35355339"
     inkscape:cx="89.761298"
     inkscape:cy="563.64008"
     inkscape:document-units="mm"
     inkscape:current-layer="g4573"
     showgrid="false"
     inkscape:window-width="1920"
     inkscape:window-height="1001"
     inkscape:window-x="-9"
     inkscape:window-y="-9"
     inkscape:window-maximized="1"
     fit-margin-top="0"
     fit-margin-left="0"
     fit-margin-right="0"
     fit-margin-bottom="0" />
  <metadata
     id="metadata5">
    <rdf:RDF>
      <cc:Work
         rdf:about="">
        <dc:format>image/svg+xml</dc:format>
        <dc:type
           rdf:resource="http://purl.org/dc/dcmitype/StillImage" />
        <dc:title></dc:title>
      </cc:Work>
    </rdf:RDF>
  </metadata>
  <g
     inkscape:label="Layer 1"
     inkscape:groupmode="layer"
     id="layer1"
     transform="translate(-2.9739435,-38.122734)" />
  <g
     id="g4573"
     inkscape:groupmode="layer"
     inkscape:label="Layer 1 copy"
     transform="translate(-2.9739435,-38.122734)">
    <g
       id="g4676"
       transform="translate(240.26274,-30.5271)">
      <polygon
         transform="matrix(0.57013752,0,0,0.57013752,-279.83987,11.282597)"
         id="polygon3028"
         points="74.633,100.62 437.367,100.62 404.321,470.819 255.778,512 107.644,470.877 "
         style="fill:#e44d26;stroke-width:0.46406934" />
      <polygon
         transform="matrix(0.57013752,0,0,0.57013752,-279.83987,11.282597)"
         id="polygon3030"
         points="376.03,447.246 404.27,130.894 256,130.894 256,480.523 "
         style="fill:#f16529;stroke-width:0.46406934" />
      <polygon
         transform="matrix(0.57013752,0,0,0.57013752,-279.83987,11.282597)"
         id="polygon3032"
         points="195.91,268.217 191.76,221.716 256,221.716 256,176.305 255.843,176.305 142.132,176.305 143.219,188.488 154.38,313.627 256,313.627 256,268.217 "
         style="fill:#ebebeb;stroke-width:0.46406934" />
      <polygon
         transform="matrix(0.57013752,0,0,0.57013752,-279.83987,11.282597)"
         id="polygon3034"
         points="156.409,336.333 162.771,407.634 255.791,433.457 256,433.399 256,386.153 255.801,386.206 205.227,372.55 201.994,336.333 177.419,336.333 "
         style="fill:#ebebeb;stroke-width:0.46406934" />
      <polygon
         transform="matrix(0.57013752,0,0,0.57013752,-279.83987,11.282597)"
         id="polygon3044"
         points="360.291,280.411 361.399,268.217 349.162,268.217 255.843,268.217 255.843,313.627 311.761,313.627 306.49,372.521 255.843,386.191 255.843,433.435 348.937,407.634 349.62,399.962 "
         style="fill:#ffffff;stroke-width:0.46406934" />
      <polygon
         transform="matrix(0.57013752,0,0,0.57013752,-279.83987,11.282597)"
         id="polygon3046"
         points="255.843,221.716 365.385,221.716 365.531,221.716 366.442,211.509 368.511,188.488 369.597,176.305 255.843,176.305 255.843,204.509 255.843,221.605 "
         style="fill:#ffffff;stroke-width:0.46406934" />
    </g>
    <g
       id="g4684"
       transform="translate(484.60739,-30.5271)">
      <polygon
         transform="matrix(0.57013752,0,0,0.57013752,-524.18452,11.282597)"
         id="polygon2989"
         points="437.367,100.62 404.321,470.819 255.778,512 107.644,470.877 74.633,100.62 "
         style="fill:#264de4;stroke-width:0.46406934" />
      <polygon
         transform="matrix(0.57013752,0,0,0.57013752,-524.18452,11.282597)"
         id="polygon2991"
         points="376.03,447.246 404.27,130.894 256,130.894 256,480.523 "
         style="fill:#2965f1;stroke-width:0.46406934" />
      <polygon
         transform="matrix(0.57013752,0,0,0.57013752,-524.18452,11.282597)"
         id="polygon2993"
         points="150.31,268.217 154.38,313.627 256,313.627 256,268.217 "
         style="fill:#ebebeb;stroke-width:0.46406934" />
      <polygon
         transform="matrix(0.57013752,0,0,0.57013752,-524.18452,11.282597)"
         id="polygon2995"
         points="256,176.305 255.843,176.305 142.132,176.305 146.26,221.716 256,221.716 "
         style="fill:#ebebeb;stroke-width:0.46406934" />
      <polygon
         transform="matrix(0.57013752,0,0,0.57013752,-524.18452,11.282597)"
         id="polygon2997"
         points="255.801,386.206 205.227,372.55 201.994,336.333 177.419,336.333 156.409,336.333 162.771,407.634 255.791,433.457 256,433.399 256,386.153 "
         style="fill:#ebebeb;stroke-width:0.46406934" />
      <polygon
         transform="matrix(0.57013752,0,0,0.57013752,-524.18452,11.282597)"
         id="polygon3005"
         points="349.62,399.962 360.291,280.411 361.399,268.217 369.597,176.305 255.843,176.305 255.843,221.716 319.831,221.716 315.699,268.217 255.843,268.217 255.843,313.627 311.761,313.627 306.49,372.521 255.843,386.191 255.843,433.435 348.937,407.634 "
         style="fill:#ffffff;stroke-width:0.46406934" />
    </g>
  </g>
</svg>
