<?xml version="1.0" encoding="UTF-8" standalone="no"?>
<!-- Created with Inkscape (http://www.inkscape.org/) -->

<svg
   xmlns:dc="http://purl.org/dc/elements/1.1/"
   xmlns:cc="http://creativecommons.org/ns#"
   xmlns:rdf="http://www.w3.org/1999/02/22-rdf-syntax-ns#"
   xmlns:svg="http://www.w3.org/2000/svg"
   xmlns="http://www.w3.org/2000/svg"
   xmlns:sodipodi="http://sodipodi.sourceforge.net/DTD/sodipodi-0.dtd"
   xmlns:inkscape="http://www.inkscape.org/namespaces/inkscape"
   width="209.76083mm"
   height="216.42868mm"
   viewBox="0 0 209.76083 216.42868"
   version="1.1"
   id="svg8"
   sodipodi:docname="gitLogo.svg"
   inkscape:version="0.92.4 (5da689c313, 2019-01-14)">
  <defs
     id="defs2" />
  <sodipodi:namedview
     id="base"
     pagecolor="#ffffff"
     bordercolor="#666666"
     borderopacity="1.0"
     inkscape:pageopacity="0.0"
     inkscape:pageshadow="2"
     inkscape:zoom="0.35355339"
     inkscape:cx="-366.38266"
     inkscape:cy="500.29989"
     inkscape:document-units="mm"
     inkscape:current-layer="g4573"
     showgrid="false"
     inkscape:window-width="1920"
     inkscape:window-height="1001"
     inkscape:window-x="-9"
     inkscape:window-y="-9"
     inkscape:window-maximized="1"
     fit-margin-top="0"
     fit-margin-left="0"
     fit-margin-right="0"
     fit-margin-bottom="0" />
  <metadata
     id="metadata5">
    <rdf:RDF>
      <cc:Work
         rdf:about="">
        <dc:format>image/svg+xml</dc:format>
        <dc:type
           rdf:resource="http://purl.org/dc/dcmitype/StillImage" />
        <dc:title></dc:title>
      </cc:Work>
    </rdf:RDF>
  </metadata>
  <g
     inkscape:label="Layer 1"
     inkscape:groupmode="layer"
     id="layer1"
     transform="translate(-0.55768761,-39.47846)" />
  <g
     id="g4573"
     inkscape:groupmode="layer"
     inkscape:label="Layer 1 copy"
     transform="translate(-0.55768761,-39.47846)">
    <g
       id="g4803">
      <g
         style="stroke-width:1.34729743"
         transform="matrix(0.74222658,0,0,0.74222658,19.658084,127.22811)"
         id="g4792">
        <path
           style="fill:#413000;stroke-width:0.35647243"
           inkscape:connector-curvature="0"
           d="m 155.36778,106.83652 c -5.55427,0 -9.69051,2.72739 -9.69051,9.29145 0,4.94558 2.7261,8.37865 9.39169,8.37865 5.64939,0 9.48634,-3.32876 9.48634,-8.58291 0,-5.95425 -3.43372,-9.08682 -9.18752,-9.08682 z m -11.10854,46.34593 c -1.31428,1.6131 -2.62401,3.32699 -2.62401,5.34973 0,4.03527 5.14594,5.24969 12.21476,5.24969 5.85588,0 13.83232,-0.41008 13.83232,-5.85449 0,-3.23595 -3.83742,-3.43632 -8.68638,-3.74034 l -14.73716,-1.00459 z m 29.88356,-46.04061 c 1.81431,2.32277 3.73533,5.55409 3.73533,10.19814 0,11.20599 -8.78382,17.76811 -21.50157,17.76811 -3.2342,0 -6.16214,-0.40288 -7.97756,-0.9068 l -3.33274,5.34992 9.89282,0.60438 c 17.46742,1.1129 27.76208,1.61868 27.76208,15.04155 0,11.61339 -10.19443,18.1718 -27.76208,18.1718 -18.27296,0 -25.23877,-4.64471 -25.23877,-12.61938 0,-4.54504 2.01959,-6.96257 5.55316,-10.29931 -3.33275,-1.40875 -4.44174,-3.93133 -4.44174,-6.65844 0,-2.22264 1.10899,-4.24129 2.92905,-6.16084 1.81662,-1.91638 3.83509,-3.83722 6.25846,-6.05763 -4.94641,-2.42254 -8.68285,-7.6726 -8.68285,-15.14456 0,-11.60876 7.67371,-19.581482 23.11728,-19.581482 4.34208,0 6.96841,0.399629 9.29053,1.009142 h 19.68821 v 8.57929 l -9.28961,0.70693"
           id="path4763" />
        <path
           style="fill:#413000;stroke-width:0.35647243"
           inkscape:connector-curvature="0"
           d="m 201.2033,88.795569 c -5.75612,0 -9.08655,-3.334605 -9.08655,-9.091375 0,-5.749531 3.33052,-8.881639 9.08655,-8.881639 5.85588,0 9.18752,3.132108 9.18752,8.881639 0,5.756677 -3.33164,9.091375 -9.18752,9.091375 z m -13.02586,60.671041 v -7.97171 l 5.15058,-0.70461 c 1.41413,-0.20486 1.61477,-0.50531 1.61477,-2.02329 v -29.68126 c 0,-1.10825 -0.30161,-1.81801 -1.31428,-2.11851 l -5.45107,-1.91991 1.11011,-8.174668 h 20.90021 v 41.895088 c 0,1.6183 0.0975,1.81848 1.61589,2.02329 l 5.14947,0.70461 v 7.97171 h -28.77643"
           id="path4765" />
        <path
           style="fill:#413000;stroke-width:0.35647243"
           inkscape:connector-curvature="0"
           d="m 256.87595,145.55402 c -4.34319,2.11759 -10.70207,4.03611 -16.45958,4.03611 -12.01338,0 -16.55517,-4.84136 -16.55517,-16.25449 v -26.44892 c 0,-0.6045 0,-1.01007 -0.81086,-1.01007 h -7.06586 v -8.984835 c 8.88703,-1.012297 12.418,-5.455344 13.52886,-16.459579 h 9.59214 v 14.340882 c 0,0.704144 0,1.009142 0.80855,1.009142 h 14.23416 v 10.09421 h -15.04248 v 24.12791 c 0,5.95741 1.41525,8.27749 6.86391,8.27749 2.8305,0 5.75492,-0.70461 8.17829,-1.61404 l 2.72841,8.88693"
           id="path4767" />
      </g>
      <g
         style="stroke-width:0.58554649"
         transform="matrix(1.7078063,0,0,1.7078063,-5.5069141,-81.615861)"
         id="g4795">
        <path
           style="fill:#f05133;stroke-width:0.15492584"
           inkscape:connector-curvature="0"
           d="M 107.28643,119.05963 61.12147,72.900326 c -2.656214,-2.658627 -6.967851,-2.658627 -9.627406,0 l -9.585645,9.586573 12.159078,12.159078 c 2.826694,-0.954388 6.06664,-0.314491 8.318788,1.938103 2.263842,2.266626 2.899173,5.53423 1.920842,8.37039 l 11.719191,11.71919 c 2.835231,-0.97703 6.106452,-0.34581 8.370386,1.92214 3.165147,3.16422 3.165147,8.2915 0,11.45656 -3.16561,3.16607 -8.292896,3.16607 -11.46027,0 -2.379938,-2.3818 -2.968589,-5.87862 -1.763168,-8.81093 L 60.24383,110.312 l -9.28e-4,28.76064 c 0.771659,0.382 1.499886,0.89184 2.142919,1.53209 3.164219,3.16385 3.164219,8.29021 0,11.45934 -3.165146,3.16376 -8.294752,3.16376 -11.456558,0 -3.164682,-3.16885 -3.164682,-8.29521 0,-11.45934 0.7821,-0.7807 1.68707,-1.37163 2.652688,-1.76771 V 109.8091 c -0.966082,-0.39442 -1.869985,-0.98093 -2.653244,-1.76791 -2.397108,-2.39525 -2.974437,-5.91342 -1.745072,-8.857042 L 37.19717,87.195827 5.5457028,118.84637 c -2.659462,2.66067 -2.659462,6.9723 0,9.63112 l 46.1621792,46.15939 c 2.657699,2.65863 6.967852,2.65863 9.629263,0 l 45.948735,-45.94131 c 2.65862,-2.65992 2.65862,-6.97286 0,-9.63204"
           id="path4769" />
      </g>
    </g>
  </g>
</svg>
