<?xml version="1.0" encoding="UTF-8" standalone="no"?>
<!-- Created with Inkscape (http://www.inkscape.org/) -->

<svg
   xmlns:dc="http://purl.org/dc/elements/1.1/"
   xmlns:cc="http://creativecommons.org/ns#"
   xmlns:rdf="http://www.w3.org/1999/02/22-rdf-syntax-ns#"
   xmlns:svg="http://www.w3.org/2000/svg"
   xmlns="http://www.w3.org/2000/svg"
   xmlns:sodipodi="http://sodipodi.sourceforge.net/DTD/sodipodi-0.dtd"
   xmlns:inkscape="http://www.inkscape.org/namespaces/inkscape"
   width="210mm"
   height="297mm"
   viewBox="0 0 210 297"
   version="1.1"
   id="svg8"
   sodipodi:docname="htmlLogo.svg"
   inkscape:version="0.92.4 (5da689c313, 2019-01-14)">
  <defs
     id="defs2" />
  <sodipodi:namedview
     id="base"
     pagecolor="#ffffff"
     bordercolor="#666666"
     borderopacity="1.0"
     inkscape:pageopacity="0.0"
     inkscape:pageshadow="2"
     inkscape:zoom="0.35355339"
     inkscape:cx="101.0014"
     inkscape:cy="655.61145"
     inkscape:document-units="mm"
     inkscape:current-layer="g4573"
     showgrid="false"
     inkscape:window-width="1920"
     inkscape:window-height="1001"
     inkscape:window-x="-9"
     inkscape:window-y="-9"
     inkscape:window-maximized="1" />
  <metadata
     id="metadata5">
    <rdf:RDF>
      <cc:Work
         rdf:about="">
        <dc:format>image/svg+xml</dc:format>
        <dc:type
           rdf:resource="http://purl.org/dc/dcmitype/StillImage" />
        <dc:title></dc:title>
      </cc:Work>
    </rdf:RDF>
  </metadata>
  <g
     inkscape:label="Layer 1"
     inkscape:groupmode="layer"
     id="layer1" />
  <g
     id="g4573"
     inkscape:groupmode="layer"
     inkscape:label="Layer 1 copy">
    <g
       id="g4676"
       transform="translate(240.26274,-30.5271)">
      <polygon
         transform="matrix(0.57013752,0,0,0.57013752,-279.83987,11.282597)"
         id="polygon3028"
         points="255.778,512 107.644,470.877 74.633,100.62 437.367,100.62 404.321,470.819 "
         style="fill:#e44d26;stroke-width:0.46406934" />
      <polygon
         transform="matrix(0.57013752,0,0,0.57013752,-279.83987,11.282597)"
         id="polygon3030"
         points="256,130.894 256,480.523 376.03,447.246 404.27,130.894 "
         style="fill:#f16529;stroke-width:0.46406934" />
      <polygon
         transform="matrix(0.57013752,0,0,0.57013752,-279.83987,11.282597)"
         id="polygon3032"
         points="256,313.627 256,268.217 195.91,268.217 191.76,221.716 256,221.716 256,176.305 255.843,176.305 142.132,176.305 143.219,188.488 154.38,313.627 "
         style="fill:#ebebeb;stroke-width:0.46406934" />
      <polygon
         transform="matrix(0.57013752,0,0,0.57013752,-279.83987,11.282597)"
         id="polygon3034"
         points="201.994,336.333 177.419,336.333 156.409,336.333 162.771,407.634 255.791,433.457 256,433.399 256,386.153 255.801,386.206 205.227,372.55 "
         style="fill:#ebebeb;stroke-width:0.46406934" />
      <polygon
         transform="matrix(0.57013752,0,0,0.57013752,-279.83987,11.282597)"
         id="polygon3044"
         points="348.937,407.634 349.62,399.962 360.291,280.411 361.399,268.217 349.162,268.217 255.843,268.217 255.843,313.627 311.761,313.627 306.49,372.521 255.843,386.191 255.843,433.435 "
         style="fill:#ffffff;stroke-width:0.46406934" />
      <polygon
         transform="matrix(0.57013752,0,0,0.57013752,-279.83987,11.282597)"
         id="polygon3046"
         points="255.843,204.509 255.843,221.605 255.843,221.716 365.385,221.716 365.531,221.716 366.442,211.509 368.511,188.488 369.597,176.305 255.843,176.305 "
         style="fill:#ffffff;stroke-width:0.46406934" />
    </g>
    <g
       id="g4580"
       transform="matrix(1.7228742,0,0,1.7228742,149.46528,-93.534092)"
       style="stroke-width:0.5804255">
      <path
         inkscape:connector-curvature="0"
         id="path4561"
         d="M 100.93311,143.23401 V 85.83972 l 26.8521,-0.15921 c 14.76865,-0.0876 26.92668,-0.13211 27.01784,-0.099 0.27167,0.0987 -9.65477,99.3663 -10.26218,102.62522 -0.2869,1.53933 -0.6156,1.73781 -4.60868,2.78293 -3.40562,0.89137 -27.01637,6.73244 -37.07047,9.17088 l -1.92861,0.46774 z"
         style="stroke-width:0.31026006" />
      <path
         inkscape:connector-curvature="0"
         id="path4569"
         d="m 92.877266,209.24791 c -6.20298,-1.76845 -16.87118,-4.77857 -23.70712,-6.68914 -6.83594,-1.91057 -12.56835,-3.61126 -12.73869,-3.77931 -0.37027,-0.36529 -0.0996,2.48806 -6.16492,-64.98226 -2.67434,-29.74898 -4.97626,-54.762307 -5.11539,-55.585152 l -0.25295,-1.49608 h 60.312004 60.312 l -0.20116,1.726247 c -0.11064,0.949436 -1.84817,20.266145 -3.86117,42.926015 -2.013,22.65986 -4.37954,49.25922 -5.25898,59.10967 -0.87943,9.85044 -1.76335,18.0656 -1.96427,18.25589 -0.49505,0.4689 -48.16526,13.78691 -49.23392,13.75488 -0.466,-0.014 -5.922454,-1.47231 -12.125434,-3.24076 z m 7.713164,-66.49983 -0.11767,-39.56299 h -5.754164 -5.75415 l -0.11831,31.18753 c -0.0651,17.15314 -0.27221,31.18661 -0.46033,31.18548 -0.18811,-9.2e-4 -5.16936,-1.34759 -11.06944,-2.99216 -5.90008,-1.64456 -10.92345,-2.99011 -11.16306,-2.99011 -0.25447,0 -0.43566,2.8495 -0.43566,6.85159 v 6.8516 l 8.63124,2.40158 c 4.74718,1.32088 12.4635,3.48544 17.14738,4.81016 4.68389,1.32471 8.672684,2.27622 8.863994,2.11444 0.19132,-0.16177 0.29489,-18.09747 0.23017,-39.85712 z m 27.27211,35.62631 c 7.97527,-2.06153 14.57028,-3.80365 14.65559,-3.87138 0.20673,-0.16414 3.24801,-38.59313 3.06904,-38.77987 -0.0767,-0.0801 -5.31461,0.4896 -11.63974,1.26591 -6.32513,0.77632 -11.62826,1.41148 -11.78472,1.41148 -0.15647,0 -0.28449,-4.76444 -0.28449,-10.58765 v -10.58765 h 12.61868 12.61868 l 0.25531,-1.72624 c 0.14041,-0.94944 0.37798,-3.5906 0.52792,-5.86924 0.14994,-2.27865 0.38044,-4.71266 0.51223,-5.40891 l 0.23962,-1.26591 h -19.14037 -19.14038 v 26.04536 26.04536 l 1.26591,-0.27063 c 0.69626,-0.14885 5.40891,-0.99608 10.47257,-1.88273 5.06366,-0.88666 9.80891,-1.73713 10.545,-1.88993 l 1.33836,-0.27783 -0.27677,5.85753 c -0.15223,3.22164 -0.37141,5.95217 -0.48709,6.06785 -0.11568,0.11568 -5.21803,1.54021 -11.33856,3.16564 -6.12053,1.62543 -11.26804,3.0413 -11.43891,3.14639 -0.17087,0.10509 -0.24869,3.30113 -0.17294,7.10232 l 0.13775,6.91126 1.47342,-0.42645 c 0.81038,-0.23454 7.99863,-2.11315 15.97389,-4.17468 z"
         style="fill:#fdd638;stroke-width:0.2671887" />
      <path
         style="stroke-width:0.31026006"
         d="M 100.93311,143.23401 V 85.83972 L 74.50119,85.68051 c -14.53756,-0.0876 -26.50535,-0.13211 -26.59509,-0.099 -0.26741,0.0987 9.5037,99.3663 10.1016,102.62522 0.28242,1.53933 0.60598,1.73781 4.53657,2.78293 3.35233,0.89137 26.59364,6.73244 36.49042,9.17088 l 1.89842,0.46774 z"
         id="path4567"
         inkscape:connector-curvature="0" />
      <path
         inkscape:connector-curvature="0"
         id="path4571"
         d="m 97.319253,209.91337 c -4.17752,-1.21552 -14.01713,-4.00958 -21.8658,-6.20903 -7.84867,-2.19945 -15.20248,-4.26067 -16.3418,-4.58049 -1.52165,-0.42715 -2.15931,-0.87464 -2.40233,-1.68588 -0.18196,-0.60742 -1.80069,-17.77993 -3.59717,-38.16115 -4.78566,-54.29354 -6.82363,-77.2313 -7.12677,-80.21294 l -0.26909,-2.64691 h 59.866097 c 51.56243,0 59.86608,0.0912 59.86608,0.65727 0,0.3615 -1.02967,12.11725 -2.28815,26.12387 -6.70724,74.65042 -7.85217,87.4892 -8.12996,91.16584 l -0.30333,4.01469 -2.34985,0.66341 c -22.56912,6.3717 -47.08086,13.1773 -47.28018,13.12718 -0.10023,-0.0252 -3.60022,-1.04033 -7.777747,-2.25586 z M 125.60565,197.254 c 10.62045,-2.91031 19.46246,-5.44731 19.64891,-5.63778 0.18646,-0.19046 1.49656,-13.39672 2.91133,-29.34724 1.41478,-15.95052 3.39814,-38.32269 4.40748,-49.71591 1.00933,-11.39323 1.96101,-21.80432 2.11485,-23.13577 l 0.2797,-2.4208 -24.56625,0.11914 -24.56625,0.11914 -0.11687,57.65664 c -0.0643,31.71116 0.0393,57.65607 0.23017,57.65536 0.19087,-9.2e-4 9.03649,-2.38246 19.65693,-5.29278 z m -24.60372,-54.54916 v -40.04892 h -5.984347 -5.98432 v 31.33363 31.33363 l -0.99743,-0.31657 c -4.63582,-1.47136 -21.86318,-6.0534 -22.13428,-5.88717 -0.62658,0.38423 -0.41018,13.41062 0.22968,13.8251 0.59523,0.38558 33.27526,9.6928 34.295277,9.76724 0.45625,0.0333 0.57542,-8.25228 0.57542,-40.00694 z"
         style="fill:#d8b72b;stroke-width:0.2671887" />
    </g>
    <g
       id="g4684"
       transform="translate(256.86235,-29.970116)">
      <polygon
         transform="matrix(0.57013752,0,0,0.57013752,-524.18452,11.282597)"
         id="polygon2989"
         points="255.778,512 107.644,470.877 74.633,100.62 437.367,100.62 404.321,470.819 "
         style="fill:#264de4;stroke-width:0.46406934" />
      <polygon
         transform="matrix(0.57013752,0,0,0.57013752,-524.18452,11.282597)"
         id="polygon2991"
         points="404.27,130.894 256,130.894 256,480.523 376.03,447.246 "
         style="fill:#2965f1;stroke-width:0.46406934" />
      <polygon
         transform="matrix(0.57013752,0,0,0.57013752,-524.18452,11.282597)"
         id="polygon2993"
         points="154.38,313.627 256,313.627 256,268.217 150.31,268.217 "
         style="fill:#ebebeb;stroke-width:0.46406934" />
      <polygon
         transform="matrix(0.57013752,0,0,0.57013752,-524.18452,11.282597)"
         id="polygon2995"
         points="142.132,176.305 146.26,221.716 256,221.716 256,176.305 255.843,176.305 "
         style="fill:#ebebeb;stroke-width:0.46406934" />
      <polygon
         transform="matrix(0.57013752,0,0,0.57013752,-524.18452,11.282597)"
         id="polygon2997"
         points="255.791,433.457 256,433.399 256,386.153 255.801,386.206 205.227,372.55 201.994,336.333 177.419,336.333 156.409,336.333 162.771,407.634 "
         style="fill:#ebebeb;stroke-width:0.46406934" />
      <polygon
         transform="matrix(0.57013752,0,0,0.57013752,-524.18452,11.282597)"
         id="polygon3005"
         points="255.843,386.191 255.843,433.435 348.937,407.634 349.62,399.962 360.291,280.411 361.399,268.217 369.597,176.305 255.843,176.305 255.843,221.716 319.831,221.716 315.699,268.217 255.843,268.217 255.843,313.627 311.761,313.627 306.49,372.521 "
         style="fill:#ffffff;stroke-width:0.46406934" />
    </g>
  </g>
</svg>
