<?xml version="1.0" encoding="UTF-8" standalone="no"?>
<!-- Created with Inkscape (http://www.inkscape.org/) -->

<svg
   xmlns:dc="http://purl.org/dc/elements/1.1/"
   xmlns:cc="http://creativecommons.org/ns#"
   xmlns:rdf="http://www.w3.org/1999/02/22-rdf-syntax-ns#"
   xmlns:svg="http://www.w3.org/2000/svg"
   xmlns="http://www.w3.org/2000/svg"
   xmlns:sodipodi="http://sodipodi.sourceforge.net/DTD/sodipodi-0.dtd"
   xmlns:inkscape="http://www.inkscape.org/namespaces/inkscape"
   width="380.42844mm"
   height="269.8067mm"
   viewBox="0 0 380.42844 269.8067"
   version="1.1"
   id="svg8"
   inkscape:version="0.92.4 (5da689c313, 2019-01-14)"
   sodipodi:docname="m_logo.svg">
  <defs
     id="defs2" />
  <sodipodi:namedview
     id="base"
     pagecolor="#ffffff"
     bordercolor="#666666"
     borderopacity="1.0"
     inkscape:pageopacity="0.0"
     inkscape:pageshadow="2"
     inkscape:zoom="0.35"
     inkscape:cx="315.4622"
     inkscape:cy="503.0325"
     inkscape:document-units="mm"
     inkscape:current-layer="layer1"
     showgrid="false"
     fit-margin-top="0"
     fit-margin-left="0"
     fit-margin-right="0"
     fit-margin-bottom="0"
     inkscape:window-width="1920"
     inkscape:window-height="1001"
     inkscape:window-x="-9"
     inkscape:window-y="-9"
     inkscape:window-maximized="1" />
  <metadata
     id="metadata5">
    <rdf:RDF>
      <cc:Work
         rdf:about="">
        <dc:format>image/svg+xml</dc:format>
        <dc:type
           rdf:resource="http://purl.org/dc/dcmitype/StillImage" />
        <dc:title></dc:title>
      </cc:Work>
    </rdf:RDF>
  </metadata>
  <g
     inkscape:label="Layer 1"
     inkscape:groupmode="layer"
     id="layer1"
     transform="translate(101.98687,-12.120648)">
    <g
       id="g836">
      <path
         style="fill:#a19369;stroke-width:1"
         d="m -84.087121,281.67481 c -5.51467,-0.50014 -8.38471,-1.78077 -11.92489,-5.32095 -1.99256,-1.99256 -2.3451,-2.51468 -2.05896,-3.04934 0.28536,-0.53321 0.0289,-0.92417 -1.4785,-2.2537 -3.019639,-2.66336 -3.045259,-2.8181 -1.108379,-6.6917 1.787259,-3.57435 3.580849,-6.22907 22.739009,-33.65613 6.91207,-9.89542 14.525485,-20.84917 16.918665,-24.34167 2.39318,-3.4925 4.94883,-7.14375 5.67921,-8.11388 2.49672,-3.31629 17.04037,-26.79629 23.38086,-37.74723 3.48255,-6.01486 12.440641,-21.96923 19.90687,-35.45416 7.4662301,-13.48494 22.07247,-39.814078 32.458313,-58.509208 l 18.883342,-33.99112 1.978632,-1.2688 c 5.41957,-3.4753 11.977384,-6.34764 16.268951,-7.125852 1.873828,-0.339789 2.537157,-0.667477 3.98351,-1.967872 3.567261,-3.207276 11.27541,-5.724836 18.415058,-6.014544 l 3.880558,-0.157462 5.11528,2.279812 5.11527,2.279812 1.72652,2.760522 c 0.94958,1.518284 1.87753,2.818484 2.0621,2.889324 1.27385,0.48892 6.990432,11.14066 8.846722,16.48415 4.43664,12.77128 4.49353,24.18553 0.2664,53.451795 -1.79249,12.410213 -2.84708,21.654023 -2.84735,24.958113 -2e-4,2.33577 -0.10323,2.72512 -1.03115,3.89671 -0.89006,1.1238 -1.08367,1.78146 -1.41693,4.81327 -0.21231,1.93139 -0.6926,5.25786 -1.06731,7.39217 -0.37471,2.1343 -0.781862,4.83306 -0.904782,5.99723 l -0.22348,2.11667 2.767762,-2.82223 c 1.52226,-1.55223 8.34489,-8.6166 15.16139,-15.69862 38.13784,-39.623373 78.72349,-77.386058 97.83893,-91.033688 5.54552,-3.95929 10.23517,-6.68576 11.4998,-6.68576 2.5212,0 8.10941,-2.53802 17.71626,-8.046309 2.38968,-1.370175 4.85031,-2.601076 5.46805,-2.735333 0.61775,-0.134257 2.66295,-0.957418 4.54488,-1.829248 l 3.42166,-1.585144 0.98538,0.717797 0.98538,0.717794 1.7902,-1.529401 c 1.46449,-1.251155 2.2998,-1.650101 4.59144,-2.192842 2.74856,-0.650953 2.82293,-0.650801 3.95125,0.0082 0.92474,0.540078 1.26965,1.085698 1.76121,2.785985 0.52878,1.829149 0.78871,2.205468 1.92687,2.789632 2.06562,1.060196 2.51238,2.244898 3.95595,10.491079 1.03385,5.90569 0.87164,6.68486 -1.62433,7.80234 -0.80384,0.35989 -1.25342,0.74001 -1.03495,0.87504 0.91966,0.56837 0.31458,2.31442 -2.08812,6.02561 -2.40309,3.71184 -3.52281,6.35104 -3.52281,8.30344 0,0.52311 -0.23138,1.14314 -0.51421,1.37785 -0.34498,0.28631 -0.4445,0.77518 -0.3024,1.48564 0.19435,0.97175 -0.0749,1.34661 -3.27155,4.55534 -3.39034,3.40312 -3.45398,3.49644 -2.38457,3.49644 0.8425,0 1.14741,0.18514 1.30732,0.79375 0.11469,0.43657 0.0935,0.83567 -0.0471,0.88689 -0.14058,0.0512 -1.40931,0.73285 -2.81943,1.51471 l -2.56385,1.42157 0.93857,1.23052 0.93856,1.23052 -1.54827,1.31172 c -3.31869,2.81161 -4.05095,3.58521 -3.40325,3.59523 0.43886,0.007 0.61736,0.29546 0.61736,0.99844 0,0.91341 -0.18849,1.0496 -2.46944,1.78423 -2.28978,0.73747 -2.46945,0.86812 -2.46945,1.79559 0,0.55013 0.21612,1.08316 0.48021,1.18452 1.28601,0.49349 0.82214,1.57919 -2.11328,4.94619 -2.81125,3.224535 -2.95342,3.468185 -2.96136,5.075105 -0.008,1.56238 -0.11532,1.76671 -1.44625,2.7463 -0.79082,0.58208 -2.43219,2.10979 -3.64744,3.3949 -2.48758,2.6306 -3.36465,4.615713 -3.36465,7.615393 0,1.03882 -0.22363,2.424 -0.49696,3.07817 -0.47671,1.14087 -1.6177,1.87107 -2.28212,1.46044 -0.17374,-0.10739 -1.06035,0.70898 -1.97019,1.81415 l -1.65425,2.00941 0.90868,0.66195 c 0.69861,0.50888 0.90873,0.96938 0.90873,1.99146 0,3.03955 -3.13638,5.32914 -8.33777,6.08663 -2.44461,0.356 -2.79735,0.49028 -2.38125,0.90639 0.7481,0.74811 0.58643,1.42044 -0.48168,2.003 -0.95772,0.52235 -0.94964,0.52652 0.63105,0.32631 2.29898,-0.29122 2.73625,0.32167 1.94829,2.73074 -0.79439,2.42869 -1.86863,4.04705 -4.01567,6.04955 -1.45398,1.35611 -2.03888,1.67568 -3.06677,1.67568 h -1.27011 l 0.10848,1.47877 c 0.0977,1.3318 0.2202,1.50754 1.23261,1.76817 1.80565,0.46488 1.75514,1.27472 -0.31831,5.10116 -1.50767,2.78237 -2.07815,3.52335 -2.92675,3.80159 -1.41315,0.46336 -1.43637,0.49159 -0.81858,0.99494 0.42337,0.34493 0.47152,0.74367 0.22786,1.88725 -0.30336,1.42372 -0.35017,1.46108 -2.59101,2.06764 -1.25512,0.33976 -2.28205,0.71316 -2.28205,0.82979 0,0.11662 0.63218,0.85618 1.40483,1.64346 l 1.40483,1.43142 -2.21809,3.69693 c -1.71383,2.85649 -2.53182,3.87291 -3.59809,4.47102 -2.05676,1.15371 -2.12277,1.83918 -0.28906,3.00207 0.98181,0.62264 1.53169,1.22746 1.53169,1.68469 0,0.39234 -0.11906,0.7176 -0.26458,0.72281 -0.14553,0.005 -1.3425,0.9974 -2.65995,2.20486 -2.28177,2.09128 -2.41469,2.30161 -2.80282,4.43524 l -0.40742,2.23987 -1.13559,-0.18428 c -0.6428,-0.10433 -1.39704,0.007 -1.73807,0.25624 -0.53174,0.38884 -0.2661,0.65632 2.26268,2.27848 1.57586,1.01087 2.86519,2.07042 2.86519,2.35458 0,0.90172 -1.35269,1.92719 -2.55764,1.9389 -0.97479,0.009 -1.28979,0.24725 -2.10308,1.58751 -0.97861,1.61264 -2.11967,2.06317 -2.99882,1.18403 -0.28791,-0.28791 -1.10473,0.67381 -3.06917,3.61361 -2.66876,3.99383 -2.67684,4.01308 -2.67684,6.36872 0,2.69108 -0.19922,2.9303 -2.33095,2.79921 -1.66135,-0.10217 -2.30319,0.46909 -1.32814,1.18206 0.62278,0.45539 0.61863,0.59068 -0.12108,3.94528 -0.62582,2.83813 -1.32714,4.57103 -3.83297,9.47094 -3.23892,6.33339 -4.57225,9.7229 -4.95262,12.5903 -0.19435,1.46512 -0.10814,1.91197 0.5373,2.78497 l 0.7688,1.03985 -1.96609,5.3338 c -1.08134,2.93358 -1.91216,5.38772 -1.84624,5.45362 0.0659,0.0659 1.29709,0.16787 2.73596,0.22658 l 2.61612,0.10676 0.28975,1.46515 c 0.24518,1.23978 0.45011,1.5004 1.33217,1.69412 1.75448,0.38536 2.96118,-0.0781 3.48509,-1.33844 0.25938,-0.62398 0.44941,-1.25797 0.42231,-1.4089 -0.0802,-0.44657 0.64881,-0.59569 4.36511,-0.89281 3.35798,-0.26846 3.58408,-0.24237 4.74831,0.54769 1.68688,1.14474 3.32529,0.98514 3.47793,-0.3388 0.122,-1.05825 -0.29375,-0.92577 5.88674,-1.87579 1.94028,-0.29823 5.6709,-1.03514 8.29028,-1.63754 2.61936,-0.6024 5.31811,-1.17122 5.99721,-1.26403 0.6791,-0.0928 1.39347,-0.29411 1.5875,-0.44732 0.19403,-0.15321 2.41653,-1.02337 4.93889,-1.93369 2.52236,-0.91032 6.24755,-2.50459 8.27825,-3.54282 2.03066,-1.03825 3.77691,-1.80271 3.88055,-1.69883 0.10361,0.10388 0.18842,2.91389 0.18842,6.24445 0,5.92966 -0.0198,6.09092 -0.95543,7.75612 -0.81107,1.44363 -2.45847,3.65897 -3.37661,4.54067 -1.12582,1.08114 -3.5482,3.10739 -3.71493,3.10739 -0.11384,0 -0.64629,0.40717 -1.18328,0.90482 -0.86173,0.79864 -1.0237,0.84004 -1.37997,0.35278 -0.5402,-0.73874 -1.1159,-0.67731 -2.79534,0.29827 -1.20128,0.69781 -1.40338,0.98406 -1.35911,1.92497 0.0339,0.71752 -0.11476,1.10527 -0.42344,1.10527 -0.26148,0 -0.6024,0.20067 -0.75755,0.44594 -0.3,0.47419 -4.03779,2.37628 -4.66965,2.37628 -0.20624,0 -0.37497,0.15875 -0.37497,0.35278 0,0.19403 -0.25615,0.35278 -0.56921,0.35278 -0.47473,0 -0.52973,-0.26356 -0.33118,-1.5875 0.22948,-1.53024 0.20549,-1.5875 -0.66547,-1.5875 -0.86032,0 -0.90357,0.0931 -0.90357,1.94506 v 1.94506 l -1.85209,0.83577 c -1.01864,0.45967 -2.24896,0.94467 -2.73402,1.07777 -0.48507,0.1331 -1.3582,0.45252 -1.94028,0.70981 -1.94416,0.85936 -2.81196,1.19773 -4.23334,1.65068 -0.77611,0.24732 -1.56986,0.55699 -1.76389,0.68814 -0.19402,0.13115 -0.9084,0.3545 -1.5875,0.49632 -0.67909,0.14182 -1.39347,0.37885 -1.5875,0.52673 -0.19402,0.14787 -0.70996,0.37835 -1.14652,0.5122 -0.58904,0.18058 -0.79375,0.10073 -0.79375,-0.3096 0,-0.31775 -0.30011,-0.55294 -0.70556,-0.55294 -0.43822,0 -0.70555,0.23519 -0.70555,0.62069 0,0.77049 -0.93187,1.3741 -2.60629,1.68822 -0.70513,0.13229 -1.36052,0.36746 -1.45641,0.52261 -0.0959,0.15514 -0.8085,0.38923 -1.58358,0.52018 -0.77511,0.13095 -1.41433,0.42258 -1.4205,0.64806 -0.006,0.22548 -0.23771,0.1108 -0.51454,-0.25483 -0.41322,-0.54578 -0.77023,-0.6221 -1.99426,-0.42637 -0.8747,0.13986 -1.69098,0.524 -1.97491,0.92937 -0.31727,0.45297 -0.89223,0.69096 -1.66929,0.69096 -0.65192,0 -1.24128,0.1679 -1.30969,0.37311 -0.0709,0.21278 -1.33419,0.40226 -2.93981,0.44096 -2.19292,0.0529 -3.00831,-0.0686 -3.68769,-0.54949 -1.38923,-0.98329 -5.65415,-0.75267 -5.65415,0.30572 0,0.2684 -0.14023,0.48802 -0.31163,0.48802 -0.1714,0 -0.39466,0.3175 -0.49614,0.70556 -0.15818,0.60487 -0.48119,0.70554 -2.26364,0.70554 -1.14353,0 -2.22995,0.1386 -2.41428,0.30802 -0.18433,0.1694 -2.12108,0.41033 -4.30389,0.53542 -3.36983,0.1931 -3.96875,0.14869 -3.96875,-0.29427 0,-1.47563 -2.9013,-2.51665 -4.5027,-1.61561 -0.33692,0.18957 -1.28727,0.51318 -2.11188,0.71916 -0.84162,0.2102 -1.49931,0.58409 -1.49931,0.8523 0,0.79774 -0.87082,0.9061 -7.28238,0.9061 -5.98363,0 -6.29219,0.0362 -10.41348,1.22273 l -4.24715,1.22273 -1.69825,-0.86057 c -0.93404,-0.47331 -2.64589,-1.73791 -3.80412,-2.81023 -1.38161,-1.27913 -2.40813,-1.94966 -2.98476,-1.94966 -0.70213,0 -0.92323,-0.22171 -1.09937,-1.10243 -0.12127,-0.60633 -0.22049,-1.52913 -0.22049,-2.05066 0,-1.20832 -1.66221,-2.84413 -2.89003,-2.84413 -0.89104,0 -0.92084,-0.0791 -1.34987,-3.58137 -0.63903,-5.21659 -0.11816,-9.78644 2.2456,-19.70196 3.02501,-12.68931 11.21343,-39.26352 15.46281,-50.18212 1.46757,-3.77085 1.88882,-4.53215 2.60758,-4.71255 0.77218,-0.19381 0.85725,-0.39968 0.85725,-2.07471 0,-1.87448 0.22623,-2.42583 3.33112,-8.11812 0.8635,-1.58308 0.94096,-2.0054 0.75567,-4.11983 -0.21422,-2.44447 0.19999,-3.4649 1.40646,-3.4649 0.57704,0 0.67481,-0.55833 0.15411,-0.88013 -0.19685,-0.12166 0.2533,-1.01788 1.02933,-2.0493 2.03547,-2.70536 4.21439,-6.94604 4.58313,-8.91985 0.17798,-0.95265 0.28186,-1.77384 0.23085,-1.82486 -0.27922,-0.27923 -3.59085,3.10654 -4.63492,4.7387 -1.70387,2.66357 -3.75027,4.60901 -7.50132,7.13121 -1.77498,1.19349 -3.45029,2.52425 -3.72292,2.95724 -0.27263,0.433 -0.60174,1.68762 -0.73136,2.78803 l -0.23567,2.00077 -2.44752,0.74341 c -2.27261,0.69029 -2.44752,0.8144 -2.44752,1.73666 0,0.82412 -1.42672,2.4319 -8.37847,9.44174 -4.60816,4.64668 -8.77535,9.10066 -9.26042,9.89772 -0.48507,0.79706 -1.27882,1.71974 -1.76389,2.05039 -1.22631,0.83593 -8.295032,9.86765 -10.287312,13.14412 -0.90433,1.48726 -1.84223,3.30399 -2.0842,4.03719 -0.34688,1.05106 -0.83525,1.55615 -2.30855,2.38764 -1.14128,0.6441 -2.40893,1.77779 -3.25678,2.91264 -2.47789,3.31667 -4.640937,8.36692 -4.640937,10.83563 0,1.20461 -0.118248,1.34039 -1.949221,2.2384 -1.297178,0.63619 -2.067539,1.26718 -2.302923,1.8863 -0.194539,0.51167 -0.30958,0.97101 -0.255644,1.02074 0.05394,0.0497 0.97119,0.22681 2.038343,0.3935 1.89846,0.29652 1.942261,0.32964 2.032349,1.53634 0.05064,0.6783 -0.03775,1.43113 -0.196426,1.67298 -0.163654,0.24942 -1.462966,0.539 -3.002492,0.66913 -1.492691,0.12617 -2.713987,0.32801 -2.713987,0.44853 0,0.12052 0.405988,0.8166 0.902198,1.54683 1.036524,1.52538 0.902084,2.7122 -0.30861,2.72438 -1.285949,0.0129 -3.866776,1.3442 -3.658436,1.88713 0.102227,0.2664 0.287425,1.17935 0.411554,2.02878 l 0.225686,1.5444 -3.4605,2.15458 c -1.903279,1.18502 -4.46248,2.75028 -5.68712,3.47834 -2.506003,1.48987 -6.010805,4.59164 -6.750982,5.97468 -0.473548,0.88483 -0.601345,0.91602 -3.753792,0.91602 h -3.263554 l -2.560483,1.76388 -2.560482,1.76389 H 40.06089 c -2.68581,0 -2.889567,0.0505 -2.726161,0.67535 0.114759,0.43885 -0.07208,0.80845 -0.533509,1.0554 -0.560211,0.29981 -1.101407,0.19875 -2.563686,-0.47873 -2.042869,-0.94648 -2.28637,-0.89971 -4.5538,0.8746 -5.374838,4.20592 -10.937174,5.00102 -14.30423,2.0447 -0.68321,-0.59986 -3.21799,-3.92147 -5.6328399,-7.38135 l -4.39065,-6.29069 2.32002,-6.27395 C 14.714404,233.81829 24.119049,206.8248 27.422704,196.17447 c 6.543022,-21.09343 11.507869,-41.96533 13.70621,-57.62007 0.496122,-3.53297 0.902043,-6.79512 0.902043,-7.24921 0,-0.70554 -0.436058,-0.40874 -2.998611,2.04101 -1.649237,1.57664 -3.014695,3.09252 -3.034355,3.36866 -0.01965,0.27612 -0.01207,0.97829 0.01686,1.56037 0.04394,0.88383 -0.306377,1.37348 -2.124604,2.96967 -2.680053,2.35276 -3.845324,4.6172 -3.850298,7.48214 l -0.0035,1.98516 -2.469445,0.64049 c -1.358195,0.35227 -2.469445,0.7344 -2.469445,0.84921 0,0.11479 0.47625,0.49004 1.058334,0.83388 1.724688,1.0188 1.419867,1.85839 -1.749432,4.81862 l -2.832711,2.64583 0.606799,1.65958 0.606799,1.65957 -3.076518,3.14395 c -3.47319,3.54931 -4.102909,4.7425 -4.387039,8.31264 -0.21809,2.74036 -0.52653,3.39231 -1.60487,3.39231 -0.3899,0 -1.27027,0.34693 -1.95636,0.77096 -1.20246,0.74316 -1.21986,0.78328 -0.48261,1.11225 0.66624,0.29729 0.76483,0.62463 0.76483,2.53927 0,2.33335 -0.21263,2.57874 -2.2930599,2.64639 -0.49026,0.016 -1.53504,1.22839 -3.42407,3.97357 -1.49518,2.17284 -4.72506,6.48278 -7.17752,9.57765 -4.2763,5.39646 -4.45041,5.68077 -4.24924,6.93883 0.19314,1.20776 0.11384,1.3711 -0.99989,2.05942 -1.6995,1.05034 -3.19832,2.85836 -4.4849101,5.41014 -2.06343,4.09249 -5.10156,7.96085 -8.247189,10.5009 -0.5864,0.4735 -1.35074,1.60751 -1.69854,2.52002 -1.926951,5.05556 -14.124111,21.64702 -24.973981,33.97143 -3.25295,3.69504 -4.22118,4.58924 -4.9832,4.60219 -0.52017,0.009 -1.31828,0.36602 -1.77358,0.79375 -0.71746,0.67403 -1.22443,0.77819 -3.80367,0.78156 -1.63673,0.002 -3.57119,0.10228 -4.29879,0.22255 -1.13685,0.18791 -1.32292,0.3488 -1.32292,1.14389 0,0.64535 -0.96802,2.09866 -3.20018,4.80454 -1.760102,2.13362 -3.747362,4.72034 -4.416142,5.74826 -0.79673,1.22461 -1.36576,1.77883 -1.6505,1.60755 -2.87326,-1.72822 -4.13888,-2.71352 -4.13965,-3.22277 -3.5e-4,-0.33358 -0.56574,0.34598 -1.25608,1.51015 -2.09977,3.54094 -2.02549,3.5122 -7.73884,2.99404 z"
         id="path830"
         inkscape:connector-curvature="0" />
      <path
         style="fill:#952604;stroke-width:1"
         d="m -84.969061,281.45453 c -2.55528,-0.37309 -4.91543,-0.99349 -6.17361,-1.62284 -3.27109,-1.63616 -7.16269,-5.37132 -6.74106,-6.47005 0.16712,-0.4355 0.47727,-0.38052 1.88891,0.33481 2.36409,1.19797 4.11121,1.61066 8.42218,1.98942 4.81172,0.42275 5.07673,0.29955 7.08493,-3.29354 0.79773,-1.42731 0.99151,-1.59398 1.19951,-1.03171 0.13644,0.36884 1.21555,1.24693 2.39801,1.95133 l 2.14994,1.28071 1.18523,-1.8365 c 0.65187,-1.01009 2.63222,-3.58276 4.40077,-5.71706 2.22108,-2.68043 3.21859,-4.16695 3.22538,-4.8066 0.0122,-1.15098 0.875165,-1.36701 5.460485,-1.36701 2.95244,0 3.31631,-0.0751 4.02602,-0.83051 0.52579,-0.55967 1.05124,-0.77869 1.61134,-0.67163 0.70041,0.13389 1.45029,-0.54933 4.76782,-4.34406 11.98761,-13.71188 23.19715,-28.99365 25.41179,-34.64349 0.249,-0.63522 1.63985,-2.3021 3.09078,-3.70416 3.04946,-2.94678 5.13889,-5.75406 6.89678,-9.26627 1.27779,-2.55298 2.89122,-4.43674 4.53936,-5.29996 0.8325901,-0.43606 0.9168601,-0.6458 0.7523501,-1.87233 -0.17911,-1.3354 -0.0288,-1.57909 4.53045,-7.34162 2.59364,-3.2782 5.82696,-7.56483 7.18515,-9.52583 2.34586,-3.38702 2.54448,-3.57721 3.96875,-3.80025 l 1.49931,-0.2348 v -2.05202 c 0,-1.71302 -0.12622,-2.13583 -0.76402,-2.55931 -0.75965,-0.50439 -0.75688,-0.5117 0.48261,-1.27775 0.68565,-0.42376 1.56564,-0.77046 1.95555,-0.77046 1.0923399,0 1.3859299,-0.65444 1.6249799,-3.62225 0.28561,-3.54593 0.92298,-4.72371 4.47052,-8.2609 l 2.895761,-2.88731 -0.591189,-1.6988 -0.591185,-1.6988 2.843361,-2.64583 c 3.184737,-2.9635 3.497174,-3.80705 1.784721,-4.81862 -0.582084,-0.34384 -1.058334,-0.7302 -1.058334,-0.85857 0,-0.12836 1.11125,-0.52161 2.469445,-0.87388 l 2.469444,-0.6405 0.0035,-1.96047 c 0.0049,-2.81292 1.165472,-5.06701 3.867835,-7.51251 2.131208,-1.92863 2.201788,-2.04693 1.967223,-3.29728 -0.238429,-1.27092 -0.179529,-1.35896 2.942932,-4.39929 3.246695,-3.16129 3.403434,-3.43709 3.685635,-6.48549 0.174703,-1.88714 0.834976,-2.66728 2.257478,-2.66728 0.45725,0 1.235128,-0.43567 1.728622,-0.96816 l 0.897258,-0.96815 -0.191336,1.23274 c -0.105237,0.67801 -0.288685,3.44513 -0.407666,6.14916 -0.118982,2.70403 -0.420151,5.40278 -0.669265,5.99722 -0.249115,0.59444 -1.490236,2.05011 -2.758045,3.23481 -2.878466,2.68979 -3.405272,3.50309 -3.350101,5.17202 0.03387,1.024 -0.145906,1.46177 -0.783665,1.90848 -3.258442,2.2823 -5.046211,5.24229 -5.143958,8.51681 l -0.05849,1.95939 -2.588366,0.69488 -2.588363,0.69487 1.299983,1.09144 c 1.35485,1.13749 1.652108,2.09176 0.801561,2.57321 -0.274119,0.15516 -1.564072,1.30666 -2.866567,2.55887 l -2.368169,2.27677 0.535513,1.67459 0.535517,1.6746 -2.925135,2.9649 c -1.608822,1.6307 -3.183798,3.46511 -3.499947,4.07648 -0.316152,0.61136 -0.737587,2.40967 -0.936527,3.99624 -0.19894,1.58657 -0.42918,2.99385 -0.51166,3.12729 -0.0825,0.13345 -0.58982,0.33277 -1.12743,0.44294 -0.53761,0.11017 -1.53106,0.61194 -2.20766,1.11505 -1.17709,0.87526 -1.19612,0.92365 -0.44097,1.12112 0.71311,0.18649 0.78921,0.42351 0.78921,2.4583 0,2.23288 -0.008,2.25191 -0.99091,2.25191 -1.3523699,0 -1.6738999,0.31706 -4.8296199,4.7625 -1.51509,2.1343 -4.70822,6.35906 -7.09583,9.38836 -3.9996,5.0745 -4.32667,5.60181 -4.15742,6.70277 0.17063,1.10986 0.0487,1.29793 -1.71079,2.64028 -1.50209,1.14592 -2.21096,2.05934 -3.4222501,4.40972 -2.13754,4.14769 -4.16667,6.90291 -7.04933,9.57181 -1.651619,1.52914 -2.721779,2.86167 -3.20664,3.9928 -2.4674,5.75622 -12.20955,19.0579 -24.07011,32.86473 -4.51444,5.25523 -4.98986,5.70206 -5.87799,5.52443 -0.76828,-0.15365 -1.08896,-0.006 -1.565,0.72051 -0.58363,0.89061 -0.69616,0.91375 -4.44237,0.91375 -4.45845,0 -4.95961,0.129 -4.95961,1.27658 0,0.55573 -1.22467,2.32708 -3.550786,5.13582 -1.95293,2.35814 -3.89763,4.89506 -4.32154,5.63762 -0.4239,0.74256 -0.87713,1.35133 -1.00717,1.35282 -0.56753,0.007 -4.16004,-2.33066 -4.16633,-2.71049 -0.0174,-1.05179 -0.72763,-0.67163 -1.60862,0.86105 -1.77951,3.09584 -2.05364,3.26953 -5.07441,3.21523 -1.46989,-0.0264 -3.06941,-0.10599 -3.55448,-0.17681 z M 122.63533,276.0718 c -0.97308,-0.55817 -2.58391,-1.7473 -3.57961,-2.64252 -0.9957,-0.89522 -2.14921,-1.62768 -2.56336,-1.62768 -0.82938,0 -0.92788,-0.1901 -1.2352,-2.38397 l -0.21041,-1.50203 1.6803,1.19389 c 2.36706,1.68184 3.92097,2.41554 4.42469,2.08917 0.23684,-0.15345 5.85318,-0.35911 12.48076,-0.45702 l 12.05016,-0.17802 0.86038,-0.92837 c 0.52919,-0.571 1.42367,-1.02353 2.32369,-1.17559 0.80482,-0.13598 1.55289,-0.39216 1.66237,-0.56931 0.10948,-0.17714 0.80585,-0.32208 1.54749,-0.32208 1.05118,0 1.59114,0.24825 2.44945,1.12615 l 1.10103,1.12616 4.67347,-0.44829 c 7.02184,-0.67355 7.67209,-0.78567 7.67209,-1.3228 0,-0.26467 0.15875,-0.48122 0.35278,-0.48122 0.19402,0 0.35277,-0.22114 0.35277,-0.49142 0,-0.67349 0.78945,-0.91969 2.94897,-0.91969 1.11712,0 2.15093,0.22273 2.6472,0.57033 0.44785,0.31369 1.40856,0.56214 2.13493,0.55212 2.21539,-0.0306 7.23,-1.18512 7.65158,-1.76166 0.27678,-0.37852 1.12902,-0.56681 2.84078,-0.62763 3.14874,-0.11187 8.24779,-1.70488 8.49604,-2.65429 0.17865,-0.68316 1.35121,-0.93007 1.56154,-0.32883 0.13761,0.39347 5.98205,-1.58386 12.68384,-4.29126 l 4.71985,-1.90676 0.10664,-1.83157 c 0.0993,-1.70521 0.1693,-1.83156 1.01523,-1.83156 0.86242,0 0.8971,0.0717 0.68293,1.41111 -0.12411,0.77611 -0.10471,1.40006 0.0431,1.38657 0.14781,-0.0135 1.69749,-0.78197 3.44374,-1.70771 2.65074,-1.40524 3.20414,-1.84641 3.35139,-2.67176 0.097,-0.54373 0.49389,-1.16432 0.88195,-1.3791 0.38805,-0.21478 0.79283,-0.50717 0.89948,-0.64977 0.3562,-0.4762 2.35743,-0.70816 2.60826,-0.30232 0.52712,0.85292 7.15084,-5.18723 8.98768,-8.19583 0.453,-0.74199 1.042,-2.01199 1.30888,-2.82222 0.47311,-1.43633 0.48203,-1.39381 0.35655,1.70186 -0.13702,3.37972 -0.96936,5.5611 -2.90153,7.60403 -0.4688,0.49568 -0.85238,1.05572 -0.85238,1.24451 0,0.33722 -0.74704,1.03836 -1.84834,1.73479 -0.30685,0.19403 -1.46054,1.13918 -2.56374,2.10034 -1.75673,1.53053 -2.0476,1.67292 -2.34217,1.14652 -0.43007,-0.76844 -1.06743,-0.75901 -2.55411,0.0378 -1.69269,0.90723 -2.43674,1.74979 -2.23301,2.52877 0.0986,0.37725 -0.0785,0.88546 -0.40315,1.15675 -1.00267,0.83784 -6.03466,3.21407 -6.28213,2.96659 -0.13003,-0.13005 -0.0321,-0.61795 0.21728,-1.08422 0.58437,-1.09192 0.23809,-1.62061 -1.06143,-1.62061 -1.01614,0 -1.03756,0.0382 -1.03974,1.85208 -0.004,1.69782 -0.0926,1.90351 -1.08695,2.46945 -0.59658,0.33955 -1.24626,0.61736 -1.44374,0.61736 -0.34276,0 -1.69422,0.54042 -3.99348,1.5969 -0.58208,0.26746 -1.72632,0.65689 -2.54275,0.86539 -0.81644,0.20851 -1.56873,0.51554 -1.67178,0.6823 -0.10308,0.16676 -0.7288,0.40477 -1.39051,0.52891 -0.66171,0.12413 -1.65566,0.4412 -2.20874,0.70458 -1.47793,0.70376 -2.94594,0.98657 -2.94594,0.56753 0,-0.19773 -0.3175,-0.3595 -0.70556,-0.3595 -0.46492,0 -0.70555,0.23519 -0.70555,0.68957 0,0.50919 -0.324,0.75035 -1.23861,0.92194 -0.68125,0.1278 -1.31709,0.3593 -1.41298,0.51445 -0.0959,0.15515 -0.80849,0.38923 -1.58358,0.52019 -0.77513,0.13095 -1.40928,0.36438 -1.40928,0.51873 0,0.15436 -0.39687,0.35651 -0.88194,0.44924 -0.5914,0.11305 -0.88195,0.0104 -0.88195,-0.31165 0,-0.56637 -2.30592,-0.67746 -2.64583,-0.12747 -0.11992,0.19403 -0.51546,0.35278 -0.87899,0.35278 -0.36353,0 -0.75848,0.30723 -0.87766,0.68275 -0.18086,0.56982 -0.68081,0.72324 -3.02239,0.9275 -1.54312,0.13461 -2.80568,0.38299 -2.80568,0.55197 0,0.16897 -0.39688,0.30722 -0.88195,0.30722 -0.48507,0 -0.88194,-0.15875 -0.88194,-0.35278 0,-0.19402 -0.27782,-0.35375 -0.61736,-0.35495 -0.33955,-10e-4 -1.07207,-0.23932 -1.62783,-0.52916 -1.207,-0.6295 -3.27861,-0.68404 -4.47825,-0.1179 -0.47678,0.22501 -1.10374,0.89969 -1.39325,1.49931 l -0.52637,1.0902 -4.58611,0.28502 c -2.52236,0.15676 -4.86177,0.43458 -5.19869,0.61736 -0.96493,0.52351 -2.38603,0.40628 -2.38603,-0.19682 0,-0.29104 -0.15875,-0.52917 -0.35278,-0.52917 -0.19403,0 -0.35278,-0.23093 -0.35278,-0.51318 0,-1.73542 -7.76215,-0.5172 -8.23539,1.29249 -0.15154,0.57948 -0.73039,0.63231 -6.98922,0.63796 -6.52679,0.006 -6.97765,0.0517 -10.35177,1.05218 -1.94028,0.57531 -3.76591,1.0473 -4.05695,1.04886 -0.29104,10e-4 -1.32533,-0.45383 -2.29841,-1.012 z M 18.602733,274.21947 c -2.614962,-0.59468 -3.221899,-1.15225 -7.231759,-6.64358 l -0.89604,-1.22708 1.04954,0.74608 c 3.37318,2.39787 7.556319,1.90945 12.504754,-1.46006 4.235877,-2.8843 3.965205,-2.80554 6.035594,-1.75639 1.690466,0.85662 1.845561,0.87742 2.451862,0.32872 0.355985,-0.32216 0.561591,-0.80896 0.456904,-1.08177 -0.154284,-0.40206 0.374354,-0.49602 2.790688,-0.49602 h 2.981028 l 2.511686,-1.76389 2.51169,-1.76389 h 3.36447 c 2.134482,0 3.364474,-0.13669 3.364474,-0.37389 0,-0.70619 3.618163,-4.19889 5.953351,-5.74691 1.28531,-0.85205 4.131578,-2.64125 6.325041,-3.976 l 3.988118,-2.42681 -0.207822,-1.23472 c -0.1143,-0.6791 -0.287069,-1.63802 -0.383935,-2.13093 -0.157744,-0.80273 -1.02e-4,-0.9593 1.511371,-1.50105 0.928119,-0.33266 1.954604,-0.60406 2.281075,-0.6031 1.027144,0.003 1.085617,-1.2429 0.124778,-2.65877 -1.162795,-1.71348 -1.13077,-1.9256 0.290731,-1.9256 0.652014,0 1.913897,-0.0998 2.804181,-0.22186 1.418396,-0.19442 1.646008,-0.34622 1.839415,-1.2268 0.393344,-1.79089 -0.01796,-2.31387 -2.004864,-2.54919 -0.991778,-0.11746 -1.861795,-0.27213 -1.933371,-0.34371 -0.07157,-0.0716 0.03521,-0.60444 0.237289,-1.18414 0.270916,-0.77715 0.850484,-1.27867 2.206453,-1.90929 1.838356,-0.85497 1.839115,-0.85601 2.089742,-2.87432 0.278924,-2.24618 1.237587,-4.7145 3.026128,-7.79152 1.628031,-2.80087 2.934703,-4.21213 4.828713,-5.21522 1.26571,-0.67034 1.72887,-1.17715 2.1987,-2.40599 0.32737,-0.85623 1.43523,-2.89477 2.46192,-4.53009 2.32442,-3.70238 9.05912,-12.19524 10.12148,-12.7638 0.4343,-0.23243 1.09765,-1.00736 1.47411,-1.72208 0.376462,-0.71472 4.526142,-5.1736 9.221522,-9.90864 6.83734,-6.89509 8.55825,-8.81913 8.64355,-9.6638 0.0982,-0.97248 0.29047,-1.1093 2.4682,-1.75633 l 2.3617,-0.70168 0.22484,-1.98174 c 0.12365,-1.08996 0.29098,-2.21987 0.37184,-2.51091 0.0809,-0.29104 1.69504,-1.59387 3.58708,-2.89518 3.72053,-2.55892 6.90684,-5.60776 8.24356,-7.8879 0.4988,-0.85085 3.96271,-4.18936 8.51386,-8.20565 4.2201,-3.72414 7.67291,-6.68843 7.67291,-6.5873 0,0.10113 -1.32233,2.84117 -2.93851,6.08898 -1.61619,3.24781 -3.30573,6.82834 -3.75454,7.95674 -0.60427,1.51926 -1.30165,2.47088 -2.68749,3.66734 -1.02931,0.88863 -2.42301,2.5054 -3.09711,3.59281 -1.60767,2.59337 -3.00041,3.90181 -7.54936,7.09239 l -3.77229,2.64583 -0.38924,2.38171 c -0.21408,1.30995 -0.45517,2.44461 -0.53576,2.52148 -0.0806,0.0769 -1.1784,0.45388 -2.43958,0.83782 -2.20644,0.67169 -2.29708,0.74444 -2.39954,1.92592 -0.0934,1.07715 -1.0154,2.1326 -7.51125,8.59852 -4.07263,4.05386 -8.07284,8.22972 -8.88936,9.27968 -0.81652,1.04996 -2.20733,2.63746 -3.09068,3.52778 -1.997152,2.01288 -6.769222,7.94516 -8.740982,10.86613 -1.57917,2.3394 -3.93584,6.73748 -3.93869,7.35051 -10e-4,0.20355 -0.54759,0.56749 -1.21475,0.80874 -3.28025,1.18615 -8.664755,10.22191 -8.664755,14.54035 0,0.80574 -0.271487,1.06765 -1.778787,1.71608 -1.211644,0.52123 -1.891104,1.06063 -2.131064,1.69177 -0.543616,1.42983 -0.18016,1.86323 1.562527,1.86323 1.89973,0 2.390737,0.51747 2.113291,2.22717 l -0.21106,1.30061 -2.335093,0.0248 c -1.284301,0.0136 -2.620362,0.13739 -2.969027,0.27501 -0.580178,0.229 -0.545017,0.38262 0.414634,1.8115 1.137959,1.69438 1.011664,2.82758 -0.31514,2.82758 -0.377303,0 -1.324215,0.25536 -2.104252,0.56747 -1.539886,0.61614 -1.656215,0.98077 -1.090454,3.41794 0.355134,1.52984 1.04358,0.94351 -6.768949,5.76488 -4.759738,2.93739 -7.217791,4.90514 -8.576525,6.8658 l -0.95328,1.37558 h -3.234521 -3.234521 l -2.254448,1.5875 -2.254447,1.5875 h -3.10611 c -3.005973,0 -3.106109,0.0262 -3.106109,0.81138 0,1.50296 -0.648956,1.69863 -2.508487,0.75633 -0.935767,-0.47419 -1.909325,-0.86216 -2.163466,-0.86216 -0.254138,0 -1.688744,0.85383 -3.188007,1.89739 -4.387085,3.05363 -7.540223,4.04522 -10.629375,3.34271 z M 169.69242,242.3595 c -0.0243,-0.10519 -0.0943,-0.62779 -0.15564,-1.16138 -0.0614,-0.53357 -0.21828,-1.48607 -0.34872,-2.11667 -0.20569,-0.9943 -0.14228,-1.14652 0.47758,-1.14652 0.75319,0 0.69378,0.12866 3.89828,-8.44263 l 1.37586,-3.68013 -0.66003,-1.08237 c -0.36302,-0.5953 -0.66063,-1.56181 -0.66136,-2.14779 -0.003,-2.27396 1.56127,-6.5509 4.38379,-11.98735 2.95374,-5.68919 4.04445,-8.48719 4.80167,-12.31766 0.39738,-2.01017 0.38204,-2.11016 -0.41604,-2.71215 -0.9986,-0.75324 -0.63814,-0.95247 1.98899,-1.09935 l 1.76388,-0.0986 0.17639,-2.64583 c 0.17298,-2.59469 0.22608,-2.71929 2.74597,-6.44422 2.26231,-3.34418 2.64973,-3.7555 3.24,-3.4396 1.20036,0.64243 1.77666,0.38507 2.75139,-1.22868 1.29656,-2.14654 2.23403,-2.11784 5.81473,0.17798 3.52386,2.25937 3.67929,3.47434 0.52003,4.06475 -1.08719,0.20317 -1.49867,0.53323 -2.23838,1.79546 -0.96287,1.64299 -1.63449,1.894 -2.63796,0.98588 -0.57937,-0.52432 -0.79263,-0.3016 -3.291,3.43721 -2.65656,3.9756 -2.67144,4.01092 -2.67144,6.3383 0,2.80881 -0.41769,3.32498 -2.43017,3.00317 -1.01863,-0.16288 -1.48689,-0.0755 -1.83351,0.34214 -0.39162,0.47188 -0.37017,0.61423 0.1352,0.89706 1.57422,0.88097 -0.12747,6.85725 -4.15176,14.58075 -4.19041,8.04234 -5.28028,12.20059 -3.83778,14.64254 0.56673,0.95939 0.53116,1.12262 -1.35711,6.22803 l -1.93909,5.24284 -2.69984,0.10303 c -1.48491,0.0567 -2.71968,0.017 -2.74393,-0.0882 z m 30.68578,-64.32835 c -0.70348,-0.0815 -0.89091,-0.265 -0.76444,-0.74852 0.12937,-0.4947 -0.56226,-1.10321 -3.03681,-2.67194 -1.76238,-1.11723 -3.20432,-2.26583 -3.20432,-2.55241 0,-0.29665 0.20849,-0.44106 0.48408,-0.33531 0.26621,0.10217 1.19084,0.29174 2.05465,0.42129 l 1.5706,0.23552 0.45325,-2.41201 c 0.44877,-2.38847 0.47865,-2.43374 3.06059,-4.64049 1.43405,-1.22566 2.60739,-2.46335 2.60739,-2.75043 0,-0.28708 -0.48814,-0.79239 -1.08476,-1.12291 -1.90719,-1.05659 -2.1397,-1.29633 -1.88955,-1.9482 0.13152,-0.3427 0.84183,-0.93058 1.57854,-1.30641 1.05854,-0.54004 1.82167,-1.48004 3.63922,-4.48289 l 2.29979,-3.79956 -1.59628,-1.63029 -1.59628,-1.63029 2.48313,-0.60852 2.48313,-0.60854 0.23883,-1.59254 c 0.17452,-1.16386 0.11049,-1.67185 -0.23784,-1.88715 -0.55799,-0.34485 -0.47929,-0.42491 0.86173,-0.87627 0.78038,-0.26267 1.43644,-1.1165 2.92509,-3.80679 1.17532,-2.12402 1.84182,-3.71169 1.71965,-4.0965 -0.10968,-0.34558 -0.71159,-0.77438 -1.33759,-0.95288 -1.0238,-0.29192 -1.1491,-0.47408 -1.24668,-1.81252 -0.10806,-1.48219 -0.10372,-1.488 1.10835,-1.488 2.27104,0 5.7858,-3.87928 7.15468,-7.8967 0.76091,-2.23316 0.29785,-2.83188 -1.96074,-2.53507 l -1.60771,0.21129 0.98746,-0.55454 c 0.77988,-0.43798 0.93673,-0.71711 0.74619,-1.32795 -0.13268,-0.42538 -0.39479,-0.87216 -0.58243,-0.99285 -0.18768,-0.1207 0.58579,-0.33526 1.71877,-0.47682 4.6591,-0.58212 7.92921,-2.17187 8.81157,-4.28374 0.77749,-1.86078 0.62753,-3.15071 -0.45822,-3.94163 l -0.94749,-0.69019 1.6782,-1.96434 c 0.9875,-1.15587 1.87427,-1.88909 2.15463,-1.78151 1.50424,0.57722 2.63634,-1.62517 2.65405,-5.163183 0.0166,-3.30579 1.71968,-6.01865 6.07963,-9.68397 2.34615,-1.972355 2.38125,-2.027475 2.38125,-3.738255 0,-1.67909 0.0931,-1.83784 2.82222,-4.81086 2.8496,-3.10431 3.40921,-4.33391 2.26402,-4.97478 -0.36113,-0.2021 -0.51678,-0.67522 -0.44097,-1.34019 0.10728,-0.94064 0.3192,-1.08572 2.49848,-1.71064 2.19481,-0.62937 2.38125,-0.75858 2.38125,-1.65009 0,-0.61629 -0.21057,-1.00864 -0.58035,-1.08132 -0.40277,-0.0792 0.2438,-0.8514 2.11296,-2.5237 l 2.69332,-2.40965 -0.92746,-1.21593 c -0.51008,-0.66876 -0.86557,-1.27237 -0.79001,-1.34136 0.0755,-0.069 1.328,-0.71827 2.78321,-1.44286 1.45521,-0.72459 2.67924,-1.34544 2.72002,-1.37968 0.0408,-0.0342 -0.0173,-0.4125 -0.12933,-0.84059 -0.15053,-0.57558 -0.46852,-0.77834 -1.22072,-0.77834 -0.55947,0 -1.01712,-0.11907 -1.01702,-0.26459 1.1e-4,-0.14552 1.52312,-1.67843 3.38448,-3.40646 3.08839,-2.86719 3.36638,-3.23133 3.17966,-4.16496 -0.11959,-0.59805 -0.004,-1.34461 0.27749,-1.79701 0.26515,-0.42566 0.5775,-1.5285 0.69409,-2.45075 0.25111,-1.98595 0.88907,-3.30119 3.7385,-7.70733 2.10654,-3.25739 2.55016,-4.69602 1.70783,-5.53835 -0.32925,-0.32926 -0.29609,-0.42333 0.14933,-0.42333 0.64766,0 2.60149,-1.54174 3.06596,-2.4193 0.19025,-0.35949 0,-2.38651 -0.5001,-5.341814 -0.44366,-2.619375 -0.75308,-4.81953 -0.68757,-4.889232 0.36883,-0.392511 2.29662,0.97258 2.76726,1.959557 0.58628,1.229427 1.65196,6.150759 2.36679,10.930049 0.38661,2.58477 0.36872,2.981 -0.17205,3.80631 -0.332,0.50666 -1.13037,1.1724 -1.77419,1.47941 -1.08941,0.5195 -1.14462,0.62702 -0.79608,1.55034 0.39412,1.04421 0.37151,1.08978 -3.9292,7.91773 -0.61105,0.97014 -1.42237,3.01661 -1.80287,4.54771 -0.38051,1.5311 -0.84836,2.94032 -1.03964,3.1316 -0.21565,0.21566 -0.22761,0.6639 -0.0314,1.17991 0.28311,0.74468 -0.0346,1.17178 -3.0244,4.064 -1.8374,1.77752 -3.34073,3.35674 -3.34073,3.50936 0,0.15263 0.43656,0.32774 0.97014,0.38913 0.65623,0.0755 1.00086,0.33993 1.0651,0.81718 0.0748,0.55554 -0.46905,1.0005 -2.55763,2.09272 -1.45895,0.76294 -2.65261,1.49559 -2.65261,1.62812 0,0.13253 0.3175,0.64459 0.70555,1.13793 0.38806,0.49333 0.70556,1.04506 0.70556,1.22607 0,0.18101 -1.19094,1.34298 -2.64654,2.58215 -2.35941,2.00861 -2.56723,2.28237 -1.91544,2.52348 0.4954,0.18327 0.69465,0.51986 0.61807,1.0442 -0.091,0.62279 -0.59486,0.91959 -2.58248,1.52115 -2.38531,0.72191 -2.46553,0.78278 -2.35479,1.78606 0.063,0.57128 0.34085,1.28931 0.61736,1.59563 0.27647,0.30632 0.50229,0.78257 0.50172,1.05833 0,0.27576 -1.3499,1.95586 -2.99861,3.73356 -2.9034,3.130565 -2.99762,3.285825 -2.99762,4.939305 0,1.6853 -0.0325,1.73424 -2.52787,3.82339 -1.39033,1.16393 -3.15426,3.00902 -3.91982,4.1002 -1.26936,1.809193 -1.42229,2.275313 -1.73591,5.291673 -0.39363,3.78599 -0.91832,4.8939 -2.31969,4.8981 -0.75265,0.002 -1.33347,0.46874 -2.6693,2.14387 -0.93898,1.17754 -1.65336,2.17598 -1.5875,2.21874 0.0659,0.0428 0.55637,0.26525 1.08995,0.4944 1.06757,0.45849 1.24834,1.41341 0.59492,3.14283 -0.90932,2.40666 -3.94363,4.12945 -8.01056,4.54813 -2.74059,0.28213 -3.12575,0.42041 -2.60932,0.93683 0.68534,0.68535 0.46408,1.67305 -0.47018,2.09873 -1.00083,0.456 -1.20453,1.12914 -0.26459,0.87432 2.0187,-0.54729 2.49965,-0.55152 2.93593,-0.0258 1.05043,1.2657 -1.22823,6.06197 -4.012,8.4448 -1.09287,0.93541 -1.75148,1.22586 -2.77979,1.22586 h -1.34761 v 1.73585 c 0,1.64296 0.0568,1.74834 1.06126,1.96896 1.91354,0.42028 1.87918,1.09558 -0.25463,5.00282 -1.77014,3.24141 -2.06573,3.59873 -3.14409,3.80104 -1.31565,0.24681 -1.44709,0.45117 -0.66523,1.03438 0.60286,0.44968 0.35602,3.00672 -0.31165,3.22823 -0.21438,0.0712 -1.31974,0.39107 -2.45632,0.71094 l -2.0665,0.58162 1.44914,1.47657 c 0.79703,0.81211 1.44914,1.60391 1.44914,1.75955 0,0.15564 -0.98538,1.92629 -2.18972,3.93476 -1.79536,2.99408 -2.43071,3.76046 -3.52778,4.25516 -0.73593,0.33186 -1.33805,0.72504 -1.33805,0.87373 0,0.14869 -0.0901,0.50525 -0.20031,0.79235 -0.13448,0.35044 0.27132,0.78708 1.23472,1.32853 2.11596,1.18924 1.9388,1.94829 -1.01946,4.36855 -2.53308,2.07238 -2.63616,2.22835 -3.03999,4.59835 -0.32215,1.89074 -0.5183,2.13529 -1.61106,2.00872 z M 92.546478,150.61095 c 0.0996,-0.85282 -0.0439,-1.43746 -0.45451,-1.85209 -0.56523,-0.57077 -0.5285,-0.73551 0.63397,-2.843 0.84142,-1.52546 1.18732,-2.55494 1.08733,-3.23621 -0.11466,-0.78119 0.0315,-1.08026 0.67025,-1.37129 0.68379,-0.31155 0.81689,-0.6399 0.81689,-2.01523 0,-0.90367 0.4691,-4.67738 1.04245,-8.38603 0.57335,-3.70866 1.14148,-7.66455 1.26253,-8.79088 0.16845,-1.56751 0.4618,-2.32318 1.2506,-3.22157 0.93322,-1.06288 1.03053,-1.41174 1.03053,-3.6948 0,-3.71977 0.863702,-11.40323 2.819122,-25.078823 2.70093,-18.889425 2.96636,-21.688715 2.97708,-31.397225 0.008,-7.47953 -0.0957,-9.19528 -0.77193,-12.74522 -1.01614,-5.33395 -2.83105,-10.84043 -5.130222,-15.56519 -1.01499,-2.0858 -1.75405,-3.79237 -1.64236,-3.79237 0.36858,0 4.518002,7.16936 6.125332,10.58334 4.5767,9.72088 6.32641,20.19153 5.50755,32.95827 -0.49187,7.6685 -1.03283,12.32869 -3.17682,27.366725 -1.65285,11.593193 -2.8272,22.070523 -2.8272,25.223723 0,1.14016 -0.21814,1.66439 -1.00713,2.42029 -0.89835,0.86067 -1.0303,1.27742 -1.22169,3.85836 -0.118,1.59141 -0.60437,5.27472 -1.0808,8.18514 -0.476442,2.91042 -0.968242,6.0454 -1.092882,6.96664 -0.20095,1.48521 -0.54829,2.01479 -3.06574,4.67431 -3.1533,3.33124 -3.98177,3.71831 -3.75235,1.75313 z"
         id="path828"
         inkscape:connector-curvature="0" />
    </g>
  </g>
</svg>
