<?xml version="1.0" encoding="UTF-8" standalone="no"?>
<!-- Created with Inkscape (http://www.inkscape.org/) -->

<svg
   xmlns:dc="http://purl.org/dc/elements/1.1/"
   xmlns:cc="http://creativecommons.org/ns#"
   xmlns:rdf="http://www.w3.org/1999/02/22-rdf-syntax-ns#"
   xmlns:svg="http://www.w3.org/2000/svg"
   xmlns="http://www.w3.org/2000/svg"
   xmlns:sodipodi="http://sodipodi.sourceforge.net/DTD/sodipodi-0.dtd"
   xmlns:inkscape="http://www.inkscape.org/namespaces/inkscape"
   
   viewBox="0 0 318.78966 62.432004"
   version="1.1"
   id="svg8"
   inkscape:version="0.92.4 (5da689c313, 2019-01-14)"
   sodipodi:docname="mrktextFULLscript.svg">
  <defs
     id="defs2" />
  <sodipodi:namedview
     id="base"
     pagecolor="#ffffff"
     bordercolor="#666666"
     borderopacity="1.0"
     inkscape:pageopacity="0.0"
     inkscape:pageshadow="2"
     inkscape:zoom="0.35"
     inkscape:cx="1034.1629"
     inkscape:cy="-153.59566"
     inkscape:document-units="mm"
     inkscape:current-layer="layer1"
     showgrid="false"
     fit-margin-top="0"
     fit-margin-left="0"
     fit-margin-right="0"
     fit-margin-bottom="0"
     inkscape:window-width="1920"
     inkscape:window-height="1001"
     inkscape:window-x="-9"
     inkscape:window-y="-9"
     inkscape:window-maximized="1" />
  <metadata
     id="metadata5">
    <rdf:RDF>
      <cc:Work
         rdf:about="">
        <dc:format>image/svg+xml</dc:format>
        <dc:type
           rdf:resource="http://purl.org/dc/dcmitype/StillImage" />
        <dc:title></dc:title>
      </cc:Work>
    </rdf:RDF>
  </metadata>
  <g
     inkscape:label="Layer 1"
     inkscape:groupmode="layer"
     id="layer1"
     transform="translate(742.94165,-132.19711)">
    <path
       style="fill:#ae9c62;stroke-width:1"
       d="m -630.1476,-132.41117 c -0.72121,-0.20795 -1.3223,-0.96615 -4.22657,-5.33134 -3.73247,-5.60999 -4.12761,-6.1141 -5.25533,-6.70475 -1.08918,-0.57046 -5.83212,-0.78171 -6.24985,-0.27837 -0.2011,0.2423 -0.32673,2.13659 -0.38014,5.73159 l -0.0797,5.36969 -0.72407,0.62232 c -1.07001,0.91964 -2.80784,0.87208 -3.78348,-0.10351 -0.68329,-0.68329 -0.73644,-0.89903 -0.90607,-3.67746 -0.29869,-4.8925 -0.0585,-24.79541 0.30693,-25.43256 0.6236,-1.08729 1.37268,-1.17219 9.52498,-1.07933 7.31557,0.0833 7.78632,0.11802 9.18228,0.67653 1.95226,0.78109 3.84831,2.51678 4.62171,4.23081 0.84868,1.88088 0.88287,6.16865 0.0634,7.94317 -0.96612,2.09192 -2.98193,3.72077 -5.89838,4.76611 -0.49419,0.17714 -0.4887,0.20277 0.12904,0.6028 1.27647,0.8266 2.49123,2.3275 4.83876,5.97854 2.6552,4.12955 2.89076,4.94675 1.75369,6.08382 -0.3484,0.34839 -0.80342,0.63344 -1.01117,0.63344 -0.20775,0 -0.53239,0.0474 -0.72141,0.10546 -0.18903,0.058 -0.72205,-0.004 -1.18448,-0.13695 z m -5.07025,-17.54142 c 1.91401,-0.9591 2.2981,-1.66671 2.2981,-4.23381 0,-2.42452 -0.36214,-3.18644 -1.96248,-4.12908 -0.79746,-0.46971 -1.34039,-0.51613 -6.03762,-0.51613 h -5.16134 l -0.0707,4.48223 c -0.0503,3.19019 0.0182,4.58941 0.23781,4.85403 0.25362,0.30558 1.12304,0.35325 4.8829,0.26769 4.2011,-0.0956 4.67545,-0.15474 5.81336,-0.72493 z m 129.91242,17.42835 c -7.21844,-1.55594 -11.48022,-7.9399 -11.01216,-16.49575 0.18462,-3.3748 0.66766,-5.32018 1.90966,-7.69082 2.47521,-4.72447 7.66436,-7.41762 13.61868,-7.06804 3.7288,0.21894 7.47878,1.63478 9.26112,3.49664 0.98063,1.02439 1.03717,2.57888 0.12903,3.54804 -0.81051,0.86496 -1.67042,0.72357 -3.8512,-0.63323 -2.33558,-1.45311 -4.22958,-1.9494 -6.82231,-1.78765 -2.74011,0.17095 -4.44732,0.90848 -5.93625,2.56454 -1.40598,1.56379 -2.10249,3.36761 -2.47118,6.39986 -0.73403,6.03709 1.21178,10.99427 4.97346,12.67047 1.14897,0.51198 1.7947,0.60845 4.121,0.61571 l 2.75854,0.009 2.9427,-1.5142 c 2.01967,-1.03925 3.10672,-1.46216 3.46556,-1.34827 0.90799,0.28818 1.43551,1.10691 1.43551,2.22792 0,1.38577 -1.05255,2.48686 -3.56304,3.72731 -3.25831,1.60995 -7.25787,2.07669 -10.95912,1.27889 z m -214.91835,-0.37874 c -0.30893,-0.28781 -0.62527,-0.78136 -0.70298,-1.09678 -0.0777,-0.31544 -0.10814,-6.82564 -0.0677,-14.46711 l 0.0736,-13.89359 0.72409,-0.62269 c 0.99017,-0.85154 2.45821,-0.84316 3.48388,0.0199 0.42786,0.36003 1.47472,2.03378 2.38078,3.80648 0.88942,1.74017 2.45277,4.73169 3.47412,6.64784 1.02135,1.91616 2.46648,4.67424 3.21141,6.12911 0.74492,1.45485 1.4888,2.64359 1.65307,2.64165 0.16425,-0.002 1.91384,-3.10844 3.88796,-6.90331 5.88337,-11.30967 6.38894,-12.19894 7.16295,-12.5992 1.05305,-0.54455 2.15343,-0.44933 2.97544,0.25747 l 0.72407,0.62261 0.12904,13.37753 c 0.071,7.35765 0.0571,13.89261 -0.0308,14.52213 -0.1975,1.41378 -0.93706,2.08127 -2.30595,2.08127 -0.67354,0 -1.2204,-0.19871 -1.71337,-0.62259 l -0.72408,-0.62256 -0.074,-9.20234 c -0.0497,-6.18617 -0.16139,-9.1732 -0.34064,-9.11345 -0.14666,0.0489 -1.88607,3.16363 -3.86537,6.92165 -1.97929,3.75803 -3.8938,7.09406 -4.25446,7.41342 -0.43765,0.38755 -0.98534,0.58065 -1.64687,0.58065 -1.29756,0 -2.06501,-0.86824 -4.03296,-4.56266 -3.69008,-6.92738 -5.42468,-9.98374 -5.72244,-10.083 -0.25252,-0.0841 -0.32157,1.77896 -0.32157,8.67647 0,5.88771 -0.0945,8.99098 -0.28653,9.4125 -0.55979,1.22861 -2.77481,1.62513 -3.79076,0.67863 z m 35.17441,0.27931 c -0.87593,-0.35851 -1.52331,-1.28287 -1.50996,-2.15599 0.007,-0.48 1.04277,-3.04149 2.47237,-6.11627 6.81221,-14.65167 9.82032,-21.03292 10.15731,-21.54722 0.76022,-1.16025 2.79651,-1.51962 4.27586,-0.75462 0.84679,0.43789 1.06836,0.86404 6.22864,11.97915 1.35084,2.90971 2.97318,6.39362 3.60517,7.74201 3.10504,6.6248 3.80319,8.2062 3.80319,8.61474 0,0.81596 -0.74216,1.89014 -1.53193,2.21728 -0.88315,0.36581 -2.39177,0.17811 -2.83202,-0.35234 -0.15771,-0.19003 -0.91655,-1.71409 -1.68631,-3.38679 -0.76975,-1.6727 -1.55239,-3.1382 -1.73921,-3.25666 -0.1868,-0.11839 -3.60234,-0.21715 -7.59005,-0.21932 -6.59114,-0.004 -7.285,0.0371 -7.63074,0.44765 -0.20918,0.2484 -0.9476,1.71019 -1.64091,3.24842 -0.69332,1.53824 -1.54294,3.0189 -1.88804,3.29036 -0.65405,0.51447 -1.61194,0.61037 -2.49337,0.2496 z m 19.22602,-11.89164 c 0,-0.60997 -5.27346,-12.12837 -5.51575,-12.04761 -0.34023,0.11339 -5.5867,11.83629 -5.41881,12.10794 0.19471,0.31503 10.93456,0.25578 10.93456,-0.0603 z m 45.40001,11.38125 -0.75434,-0.75434 v -13.97246 c 0,-9.08964 0.0929,-14.14595 0.26572,-14.46895 0.6264,-1.17046 2.94824,-1.6558 4.09126,-0.85521 1.29682,0.90832 1.32049,1.18083 1.32049,15.19224 0,14.01143 -0.0236,14.28392 -1.32049,15.19225 -0.33215,0.23264 -1.10332,0.42083 -1.72455,0.42083 -0.89794,0 -1.27531,-0.15158 -1.87809,-0.75436 z m 12.57715,0.22439 c -0.37057,-0.29149 -0.78466,-0.95923 -0.92021,-1.48389 -0.3132,-1.21215 -0.35197,-25.32527 -0.0433,-26.88216 0.4249,-2.14273 2.4307,-2.98205 4.34181,-1.81682 0.4613,0.28126 0.86235,0.54211 0.89123,0.57969 0.0289,0.0376 0.11595,2.78786 0.19355,6.11174 0.0975,4.17768 0.23175,6.07356 0.43488,6.14102 0.16162,0.0536 2.65842,-2.12853 5.54846,-4.84935 8.12425,-7.64857 9.12775,-8.4964 10.05629,-8.4964 0.56386,0 1.0561,0.25773 1.6758,0.87742 0.93339,0.9334 1.08202,1.68871 0.52855,2.68607 -0.31993,0.57653 -3.51693,3.60612 -9.26376,8.7787 -1.52563,1.37316 -2.77403,2.63141 -2.77423,2.79607 -2.5e-4,0.24726 6.51481,6.47481 11.40594,10.9025 1.95804,1.77251 2.15999,3.3912 0.5783,4.63535 -0.69343,0.54545 -1.64978,0.67587 -2.48096,0.33833 -0.23758,-0.0964 -3.69783,-3.23419 -7.68947,-6.97268 -4.71428,-4.41532 -7.389,-6.74685 -7.63267,-6.65335 -0.31346,0.12034 -0.37512,1.14541 -0.37512,6.23649 v 6.09254 l -0.75435,0.75434 c -0.95131,0.95131 -2.66527,1.05467 -3.72081,0.22439 z m 48.42799,0.2701 c -1.21569,-0.48982 -1.23494,-0.68174 -1.37171,-13.67577 l -0.12904,-12.2582 -4.60342,-0.12904 -4.60342,-0.12903 -0.62245,-0.72407 c -0.83926,-0.9763 -0.83461,-2.31306 0.011,-3.15866 l 0.63344,-0.63344 h 12.15263 12.15263 l 0.63343,0.63344 c 1.02806,1.02805 0.78952,2.83478 -0.46926,3.55423 -0.37431,0.21394 -2.10465,0.3735 -4.96188,0.45753 l -4.38714,0.12904 -0.12904,12.2582 c -0.13862,13.16877 -0.12473,13.04073 -1.48212,13.6592 -0.71786,0.32708 -2.03379,0.33481 -2.82364,0.0166 z m 74.57902,-0.36296 -0.72409,-0.62282 v -14.36743 -14.36741 l 0.72409,-0.62283 c 1.18922,-1.02293 3.59944,-0.65685 4.30059,0.65321 0.15789,0.29503 0.2657,2.68158 0.2657,5.88126 0,3.84406 0.0886,5.47337 0.30969,5.69446 0.44199,0.442 14.93882,0.442 15.38082,0 0.22108,-0.22109 0.30968,-1.8504 0.30968,-5.69446 0,-3.19968 0.10778,-5.58623 0.2657,-5.88126 0.33753,-0.63064 1.57365,-1.27603 2.44401,-1.27603 0.971,0 2.046,0.63216 2.40139,1.41216 0.22653,0.49717 0.30832,4.27072 0.30832,14.22586 0,14.48297 -0.0137,14.64678 -1.27604,15.3224 -0.9134,0.48883 -2.50768,0.31602 -3.29027,-0.35666 l -0.72408,-0.62237 -0.0739,-5.89383 c -0.0643,-5.12681 -0.1294,-5.93581 -0.50094,-6.21641 -0.31783,-0.24005 -2.25858,-0.32258 -7.58525,-0.32258 -6.16329,0 -7.21448,0.0563 -7.56367,0.40553 -0.34408,0.3441 -0.40552,1.26589 -0.40552,6.08444 v 5.6789 l -0.75436,0.75434 c -1.005,1.005 -2.72738,1.06443 -3.81194,0.13153 z m -55.6695,-0.42925 -0.66811,-0.794 v -13.80665 -13.80664 l 0.75434,-0.75436 0.75436,-0.75435 h 9.19297 9.19298 l 0.63344,0.63344 c 0.93265,0.93265 0.86555,2.22218 -0.16057,3.08559 l -0.794,0.66811 h -6.92041 c -6.07244,0 -6.9396,0.05 -7.07705,0.40821 -0.0862,0.2245 -0.15664,2.01031 -0.15664,3.96844 0,2.59513 0.0903,3.63525 0.33343,3.83695 0.212,0.17595 2.70016,0.30494 6.83207,0.3542 6.10218,0.0728 6.53017,0.109 7.01522,0.59449 0.28412,0.28436 0.59104,0.88939 0.68207,1.34451 0.13911,0.69559 0.0405,0.95253 -0.61904,1.61203 l -0.78455,0.78454 h -6.41992 c -4.64919,0 -6.50534,0.0855 -6.7296,0.30968 -0.34999,0.34997 -0.44344,7.85464 -0.10449,8.38794 0.14385,0.22631 2.10722,0.33121 7.24465,0.3871 l 7.04732,0.0767 0.62246,0.72408 c 0.8135,0.94629 0.8092,2.08042 -0.011,2.9006 l -0.63345,0.63343 h -9.2792 -9.27923 z"
       id="path826"
       inkscape:connector-curvature="0"
       sodipodi:nodetypes="csccccccccccscccscsccccscscccscccsccccscccsccccssccccccccccscscccccsccccccsscscccccscccsscccccccccsccssscsccscssccccccccsccccsccccsccccccccccccccccccssccccccccsccscscscccccscsccccccccccccsccscsccccccscccccccccc" />
    <path
       style="fill:#ae9c62;stroke-width:1"
       d="m -728.4233,193.75987 c -4.25638,-1.85836 -6.77988,-4.56506 -8.08894,-8.67613 -0.35316,-1.1091 -0.49027,-2.80149 -0.62721,-7.74203 -0.1428,-5.15145 -0.25811,-6.51386 -0.62247,-7.35492 -0.81535,-1.88201 -2.54185,-3.22585 -4.14445,-3.22585 -0.93487,0 -1.10776,-0.59525 -1.01191,-3.48389 0.0471,-1.41938 0.0869,-2.7059 0.0885,-2.85894 10e-4,-0.15305 0.60557,-0.41739 1.34223,-0.58743 1.73235,-0.39987 2.84788,-1.27006 3.59553,-2.80476 0.56359,-1.15687 0.61042,-1.6304 0.75993,-7.68451 0.17201,-6.96442 0.39782,-8.26986 1.8622,-10.76508 1.1174,-1.90403 3.7031,-4.14632 6.14336,-5.32747 3.24697,-1.57164 3.34981,-1.54326 4.329,1.19411 0.44523,1.24468 0.80951,2.32838 0.80951,2.40819 0,0.0799 -0.56326,0.5101 -1.25167,0.95617 -0.68842,0.44608 -1.5499,1.26169 -1.91439,1.81249 -1.32078,1.99584 -1.53909,3.28626 -1.73198,10.23772 -0.16019,5.77295 -0.23863,6.60493 -0.74569,7.90843 -0.74589,1.91749 -1.85641,3.41571 -3.27078,4.41265 -0.63256,0.44586 -1.15012,0.94093 -1.15012,1.10013 0,0.15921 0.51352,0.67423 1.14116,1.14451 1.44649,1.08381 2.62581,2.72191 3.31554,4.60532 0.4721,1.28921 0.56091,2.28449 0.70723,7.92603 0.1473,5.67973 0.23315,6.63247 0.71749,7.96256 0.68484,1.88067 1.53909,3.01737 3.04773,4.05534 0.6444,0.44336 1.12243,0.94009 1.06229,1.10385 -0.0601,0.16377 -0.37407,1.11066 -0.6976,2.10423 -0.62806,1.9287 -0.92596,2.45351 -1.38987,2.44849 -0.16004,-10e-4 -1.1836,-0.39288 -2.27458,-0.86921 z m 286.90262,0.63469 c -0.31165,-0.50428 -1.43197,-3.97145 -1.43197,-4.4317 0,-0.24743 0.39833,-0.69607 0.8852,-0.99696 1.32238,-0.81729 2.34745,-2.11337 3.00261,-3.7965 0.52941,-1.36003 0.60401,-2.12668 0.77441,-7.95673 0.10961,-3.74833 0.3198,-6.88422 0.50175,-7.48395 0.70611,-2.32701 2.25769,-4.47323 4.02236,-5.56385 0.48307,-0.29855 0.87829,-0.63699 0.87829,-0.75209 0,-0.11509 -0.57501,-0.64777 -1.27781,-1.18372 -1.57231,-1.19908 -2.59407,-2.60348 -3.36809,-4.6295 -0.53587,-1.4027 -0.60883,-2.15551 -0.77521,-8.00009 -0.13128,-4.61196 -0.29435,-6.79176 -0.57186,-7.64428 -0.55205,-1.696 -1.86164,-3.48329 -3.04913,-4.16136 -1.23059,-0.70268 -1.25449,-0.97265 -0.31978,-3.6139 0.86877,-2.4549 0.99766,-2.47943 4.3808,-0.83363 4.02281,1.95697 6.35026,4.74617 7.4424,8.91889 0.3164,1.20881 0.4789,3.33147 0.60105,7.85042 0.16681,6.17169 0.16996,6.19794 0.88516,7.41799 0.76265,1.30096 1.6515,1.8997 3.53644,2.38219 l 1.1613,0.29726 0.0733,2.91442 c 0.0789,3.14229 -0.0766,3.63347 -1.14993,3.63347 -0.79152,0 -2.07198,0.64024 -2.98099,1.49052 -1.19677,1.11945 -1.43888,2.47096 -1.58232,8.83218 -0.14609,6.48005 -0.36875,7.72536 -1.90579,10.65916 -1.19109,2.27338 -3.39089,4.2843 -6.13179,5.60525 -2.41011,1.16153 -3.35882,1.43729 -3.60035,1.04651 z m -183.04898,-16.56818 c -0.72121,-0.20795 -1.3223,-0.96615 -4.22657,-5.33134 -3.73247,-5.60999 -4.12761,-6.1141 -5.25533,-6.70475 -1.08918,-0.57046 -5.83212,-0.78171 -6.24985,-0.27837 -0.2011,0.2423 -0.32673,2.13659 -0.38014,5.73159 l -0.0797,5.36969 -0.72407,0.62232 c -1.07001,0.91964 -2.80784,0.87208 -3.78348,-0.10351 -0.68329,-0.68329 -0.73644,-0.89903 -0.90607,-3.67746 -0.29869,-4.8925 -0.0585,-24.79542 0.30693,-25.43257 0.6236,-1.08729 1.37268,-1.17219 9.52498,-1.07933 7.31557,0.0833 7.78632,0.11802 9.18228,0.67653 1.95226,0.78109 3.84831,2.51678 4.62171,4.23082 0.84868,1.88088 0.88287,6.16865 0.0634,7.94317 -0.96612,2.09192 -2.98193,3.72077 -5.89838,4.76611 -0.49419,0.17714 -0.4887,0.20277 0.12904,0.6028 1.27647,0.8266 2.49123,2.3275 4.83876,5.97854 2.6552,4.12955 2.89076,4.94675 1.75369,6.08382 -0.3484,0.34839 -0.80342,0.63344 -1.01117,0.63344 -0.20775,0 -0.53239,0.0474 -0.72141,0.10546 -0.18903,0.058 -0.72205,-0.004 -1.18448,-0.13695 z m -5.07025,-17.54142 c 1.91401,-0.9591 2.2981,-1.66671 2.2981,-4.23381 0,-2.42452 -0.36214,-3.18644 -1.96248,-4.12908 -0.79746,-0.46971 -1.34039,-0.51613 -6.03762,-0.51613 h -5.16134 l -0.0707,4.48223 c -0.0503,3.19019 0.0182,4.58941 0.23781,4.85403 0.25362,0.30558 1.12304,0.35325 4.8829,0.26769 4.2011,-0.0956 4.67545,-0.15474 5.81336,-0.72493 z m 129.91242,17.42835 c -7.21844,-1.55594 -11.48022,-7.9399 -11.01216,-16.49575 0.18462,-3.3748 0.66766,-5.32018 1.90966,-7.69082 2.47521,-4.72448 7.66436,-7.41763 13.61868,-7.06805 3.7288,0.21894 7.47878,1.63478 9.26112,3.49664 0.98063,1.0244 1.03717,2.57889 0.12903,3.54805 -0.81051,0.86496 -1.67042,0.72357 -3.8512,-0.63323 -2.33558,-1.45311 -4.22958,-1.94941 -6.82231,-1.78765 -2.74011,0.17095 -4.44732,0.90848 -5.93625,2.56454 -1.40598,1.56379 -2.10249,3.36761 -2.47118,6.39986 -0.73403,6.03709 1.21178,10.99427 4.97346,12.67047 1.14897,0.51198 1.7947,0.60845 4.121,0.61571 l 2.75854,0.009 2.9427,-1.5142 c 2.01967,-1.03925 3.10672,-1.46216 3.46556,-1.34827 0.90799,0.28818 1.43551,1.10691 1.43551,2.22792 0,1.38577 -1.05255,2.48686 -3.56304,3.72731 -3.25831,1.60995 -7.25787,2.07669 -10.95912,1.27889 z m -214.91835,-0.37874 c -0.30893,-0.28781 -0.62527,-0.78136 -0.70298,-1.09678 -0.0777,-0.31544 -0.10814,-6.82564 -0.0677,-14.46711 l 0.0736,-13.8936 0.72409,-0.62269 c 0.99017,-0.85154 2.45821,-0.84316 3.48388,0.0199 0.42786,0.36003 1.47472,2.03378 2.38078,3.80649 0.88942,1.74017 2.45277,4.73169 3.47412,6.64784 1.02135,1.91616 2.46648,4.67424 3.21141,6.12911 0.74492,1.45485 1.4888,2.64359 1.65307,2.64165 0.16425,-0.002 1.91384,-3.10844 3.88796,-6.90331 5.88337,-11.30968 6.38894,-12.19895 7.16295,-12.59921 1.05305,-0.54455 2.15343,-0.44933 2.97544,0.25747 l 0.72407,0.62261 0.12904,13.37754 c 0.071,7.35765 0.0571,13.89261 -0.0308,14.52213 -0.1975,1.41378 -0.93706,2.08127 -2.30595,2.08127 -0.67354,0 -1.2204,-0.19871 -1.71337,-0.62259 l -0.72408,-0.62256 -0.074,-9.20234 c -0.0497,-6.18617 -0.16139,-9.1732 -0.34064,-9.11345 -0.14666,0.0489 -1.88607,3.16363 -3.86537,6.92165 -1.97929,3.75803 -3.8938,7.09406 -4.25446,7.41342 -0.43765,0.38755 -0.98534,0.58065 -1.64687,0.58065 -1.29756,0 -2.06501,-0.86824 -4.03296,-4.56266 -3.69008,-6.92738 -5.42468,-9.98374 -5.72244,-10.083 -0.25252,-0.0841 -0.32157,1.77896 -0.32157,8.67647 0,5.88771 -0.0945,8.99098 -0.28653,9.4125 -0.55979,1.22861 -2.77481,1.62513 -3.79076,0.67863 z m 35.17441,0.27931 c -0.87593,-0.35851 -1.52331,-1.28287 -1.50996,-2.15599 0.007,-0.48 1.04277,-3.04149 2.47237,-6.11627 6.81221,-14.65167 9.82032,-21.03293 10.15731,-21.54723 0.76022,-1.16025 2.79651,-1.51962 4.27586,-0.75462 0.84679,0.43789 1.06836,0.86404 6.22864,11.97916 1.35084,2.90971 2.97318,6.39362 3.60517,7.74201 3.10504,6.6248 3.80319,8.2062 3.80319,8.61474 0,0.81596 -0.74216,1.89014 -1.53193,2.21728 -0.88315,0.36581 -2.39177,0.17811 -2.83202,-0.35234 -0.15771,-0.19003 -0.91655,-1.71409 -1.68631,-3.38679 -0.76975,-1.6727 -1.55239,-3.1382 -1.73921,-3.25666 -0.1868,-0.11839 -3.60234,-0.21715 -7.59005,-0.21932 -6.59114,-0.004 -7.285,0.0371 -7.63074,0.44765 -0.20918,0.2484 -0.9476,1.71019 -1.64091,3.24842 -0.69332,1.53824 -1.54294,3.0189 -1.88804,3.29036 -0.65405,0.51447 -1.61194,0.61037 -2.49337,0.2496 z m 19.22602,-11.89164 c 0,-0.60997 -5.27346,-12.12837 -5.51575,-12.04761 -0.34023,0.11339 -5.5867,11.83629 -5.41881,12.10794 0.19471,0.31503 10.93456,0.25578 10.93456,-0.0603 z m 45.40001,11.38125 -0.75434,-0.75434 v -13.97246 c 0,-9.08964 0.0929,-14.14596 0.26572,-14.46896 0.6264,-1.17046 2.94824,-1.6558 4.09126,-0.85521 1.29682,0.90832 1.32049,1.18083 1.32049,15.19225 0,14.01143 -0.0236,14.28392 -1.32049,15.19225 -0.33215,0.23264 -1.10332,0.42083 -1.72455,0.42083 -0.89794,0 -1.27531,-0.15158 -1.87809,-0.75436 z m 12.57715,0.22439 c -0.37057,-0.29149 -0.78466,-0.95923 -0.92021,-1.48389 -0.3132,-1.21215 -0.35197,-25.32528 -0.0433,-26.88217 0.4249,-2.14273 2.4307,-2.98205 4.34181,-1.81682 0.4613,0.28126 0.86235,0.54211 0.89123,0.57969 0.0289,0.0376 0.11595,2.78786 0.19355,6.11175 0.0975,4.17768 0.23175,6.07356 0.43488,6.14102 0.16162,0.0536 2.65842,-2.12853 5.54846,-4.84935 8.12425,-7.64858 9.12775,-8.49641 10.05629,-8.49641 0.56386,0 1.0561,0.25773 1.6758,0.87742 0.93339,0.9334 1.08202,1.68871 0.52855,2.68607 -0.31993,0.57653 -3.51693,3.60613 -9.26376,8.77871 -1.52563,1.37316 -2.77403,2.63141 -2.77423,2.79607 -2.5e-4,0.24726 6.51481,6.47481 11.40594,10.9025 1.95804,1.77251 2.15999,3.3912 0.5783,4.63535 -0.69343,0.54545 -1.64978,0.67587 -2.48096,0.33833 -0.23758,-0.0964 -3.69783,-3.23419 -7.68947,-6.97268 -4.71428,-4.41532 -7.389,-6.74685 -7.63267,-6.65335 -0.31346,0.12034 -0.37512,1.14541 -0.37512,6.23649 v 6.09254 l -0.75435,0.75434 c -0.95131,0.95131 -2.66527,1.05467 -3.72081,0.22439 z m 48.42799,0.2701 c -1.21569,-0.48982 -1.23494,-0.68174 -1.37171,-13.67577 l -0.12904,-12.2582 -4.60342,-0.12904 -4.60342,-0.12903 -0.62245,-0.72408 c -0.83926,-0.9763 -0.83461,-2.31306 0.011,-3.15866 l 0.63344,-0.63344 h 12.15263 12.15263 l 0.63343,0.63344 c 1.02806,1.02805 0.78952,2.83478 -0.46926,3.55424 -0.37431,0.21394 -2.10465,0.3735 -4.96188,0.45753 l -4.38714,0.12904 -0.12904,12.2582 c -0.13862,13.16877 -0.12473,13.04073 -1.48212,13.6592 -0.71786,0.32708 -2.03379,0.33481 -2.82364,0.0166 z m 74.57902,-0.36296 -0.72409,-0.62282 v -14.36743 -14.36742 l 0.72409,-0.62283 c 1.18922,-1.02293 3.59944,-0.65685 4.30059,0.65321 0.15789,0.29503 0.2657,2.68158 0.2657,5.88127 0,3.84406 0.0886,5.47337 0.30969,5.69446 0.44199,0.442 14.93882,0.442 15.38082,0 0.22108,-0.22109 0.30968,-1.8504 0.30968,-5.69446 0,-3.19969 0.10778,-5.58624 0.2657,-5.88127 0.33753,-0.63064 1.57365,-1.27603 2.44401,-1.27603 0.971,0 2.046,0.63216 2.40139,1.41216 0.22653,0.49717 0.30832,4.27073 0.30832,14.22587 0,14.48297 -0.0137,14.64678 -1.27604,15.3224 -0.9134,0.48883 -2.50768,0.31602 -3.29027,-0.35666 l -0.72408,-0.62237 -0.0739,-5.89383 c -0.0643,-5.12681 -0.1294,-5.93581 -0.50094,-6.21641 -0.31783,-0.24005 -2.25858,-0.32258 -7.58525,-0.32258 -6.16329,0 -7.21448,0.0563 -7.56367,0.40553 -0.34408,0.3441 -0.40552,1.26589 -0.40552,6.08444 v 5.6789 l -0.75436,0.75434 c -1.005,1.005 -2.72738,1.06443 -3.81194,0.13153 z m -55.6695,-0.42925 -0.66811,-0.794 v -13.80665 -13.80665 l 0.75434,-0.75436 0.75436,-0.75435 h 9.19297 9.19298 l 0.63344,0.63344 c 0.93265,0.93265 0.86555,2.22218 -0.16057,3.08559 l -0.794,0.66812 h -6.92041 c -6.07244,0 -6.9396,0.05 -7.07705,0.40821 -0.0862,0.2245 -0.15664,2.01031 -0.15664,3.96844 0,2.59513 0.0903,3.63525 0.33343,3.83695 0.212,0.17595 2.70016,0.30494 6.83207,0.3542 6.10218,0.0728 6.53017,0.109 7.01522,0.59449 0.28412,0.28436 0.59104,0.88939 0.68207,1.34451 0.13911,0.69559 0.0405,0.95253 -0.61904,1.61203 l -0.78455,0.78454 h -6.41992 c -4.64919,0 -6.50534,0.0855 -6.7296,0.30968 -0.34999,0.34997 -0.44344,7.85464 -0.10449,8.38794 0.14385,0.22631 2.10722,0.33121 7.24465,0.3871 l 7.04732,0.0767 0.62246,0.72408 c 0.8135,0.94629 0.8092,2.08042 -0.011,2.9006 l -0.63345,0.63343 h -9.2792 -9.27923 z"
       id="path830"
       inkscape:connector-curvature="0" />
  </g>
</svg>
