<?xml version="1.0" encoding="UTF-8" standalone="no"?>
<!-- Created with Inkscape (http://www.inkscape.org/) -->

<svg
   xmlns:dc="http://purl.org/dc/elements/1.1/"
   xmlns:cc="http://creativecommons.org/ns#"
   xmlns:rdf="http://www.w3.org/1999/02/22-rdf-syntax-ns#"
   xmlns:svg="http://www.w3.org/2000/svg"
   xmlns="http://www.w3.org/2000/svg"
   xmlns:xlink="http://www.w3.org/1999/xlink"
   xmlns:sodipodi="http://sodipodi.sourceforge.net/DTD/sodipodi-0.dtd"
   xmlns:inkscape="http://www.inkscape.org/namespaces/inkscape"
   width="210mm"
   height="297mm"
   viewBox="0 0 210 297"
   version="1.1"
   id="svg8"
   sodipodi:docname="nodeLogo.svg"
   inkscape:version="0.92.4 (5da689c313, 2019-01-14)">
  <defs
     id="defs2">
    <linearGradient
       id="b"
       y2="105.42219"
       x2="32.862076"
       y1="21.346527"
       x1="79.822203"
       gradientTransform="scale(0.93682488,1.0674354)"
       gradientUnits="userSpaceOnUse">
      <stop
         id="stop4805"
         offset="0%"
         stop-color="#41873F" />
      <stop
         id="stop4807"
         offset="32.88%"
         stop-color="#418B3D" />
      <stop
         id="stop4809"
         offset="63.52%"
         stop-color="#419637" />
      <stop
         id="stop4811"
         offset="93.19%"
         stop-color="#3FA92D" />
      <stop
         id="stop4813"
         offset="100%"
         stop-color="#3FAE2A" />
    </linearGradient>
    <path
       d="M57.903 1.85a5.957 5.957 0 0 0-5.894 0L3.352 29.933c-1.85 1.04-2.89 3.005-2.89 5.085v56.286c0 2.08 1.156 4.045 2.89 5.085l48.657 28.085a5.957 5.957 0 0 0 5.894 0l48.658-28.085c1.849-1.04 2.89-3.005 2.89-5.085V35.019c0-2.08-1.157-4.045-2.89-5.085L57.903 1.85z"
       id="a" />
    <linearGradient
       id="d"
       y2="-19.864828"
       x2="184.67395"
       y1="64.594605"
       x1="51.368862"
       gradientTransform="scale(0.92602084,1.0798893)"
       gradientUnits="userSpaceOnUse">
      <stop
         id="stop4817"
         offset="13.76%"
         stop-color="#41873F" />
      <stop
         id="stop4819"
         offset="40.32%"
         stop-color="#54A044" />
      <stop
         id="stop4821"
         offset="71.36%"
         stop-color="#66B848" />
      <stop
         id="stop4823"
         offset="90.81%"
         stop-color="#6CC04A" />
    </linearGradient>
    <linearGradient
       id="e"
       y2="1.3961854"
       x2="60.624519"
       y1="1.3961854"
       x1="5.4630943"
       gradientTransform="scale(1.6318162,0.6128141)"
       gradientUnits="userSpaceOnUse">
      <stop
         id="stop4826"
         offset="9.192%"
         stop-color="#6CC04A" />
      <stop
         id="stop4828"
         offset="28.64%"
         stop-color="#66B848" />
      <stop
         id="stop4830"
         offset="59.68%"
         stop-color="#54A044" />
      <stop
         id="stop4832"
         offset="86.24%"
         stop-color="#41873F" />
    </linearGradient>
    <linearGradient
       id="f"
       y2="66.989659"
       x2="120.27905"
       y1="66.989659"
       x1="-1.4223322"
       gradientTransform="scale(0.92514783,1.0809083)"
       gradientUnits="userSpaceOnUse">
      <stop
         id="stop4835"
         offset="9.192%"
         stop-color="#6CC04A" />
      <stop
         id="stop4837"
         offset="28.64%"
         stop-color="#66B848" />
      <stop
         id="stop4839"
         offset="59.68%"
         stop-color="#54A044" />
      <stop
         id="stop4841"
         offset="86.24%"
         stop-color="#41873F" />
    </linearGradient>
    <linearGradient
       id="g"
       y2="68.391641"
       x2="169.5617"
       y1="68.391641"
       x1="117.94696"
       gradientTransform="scale(0.65492335,1.5268962)"
       gradientUnits="userSpaceOnUse">
      <stop
         id="stop4844"
         offset="9.192%"
         stop-color="#6CC04A" />
      <stop
         id="stop4846"
         offset="28.64%"
         stop-color="#66B848" />
      <stop
         id="stop4848"
         offset="59.68%"
         stop-color="#54A044" />
      <stop
         id="stop4850"
         offset="86.24%"
         stop-color="#41873F" />
    </linearGradient>
    <linearGradient
       id="h"
       y2="150.7515"
       x2="87.897068"
       y1="150.7515"
       x1="-1.0387961"
       gradientTransform="scale(1.2659747,0.78990523)"
       gradientUnits="userSpaceOnUse">
      <stop
         id="stop4853"
         offset="9.192%"
         stop-color="#6CC04A" />
      <stop
         id="stop4855"
         offset="28.64%"
         stop-color="#66B848" />
      <stop
         id="stop4857"
         offset="59.68%"
         stop-color="#54A044" />
      <stop
         id="stop4859"
         offset="86.24%"
         stop-color="#41873F" />
    </linearGradient>
    <linearGradient
       id="i"
       y2="216.51322"
       x2="46.003895"
       y1="37.182247"
       x1="100.85387"
       gradientTransform="scale(1.2659747,0.78990523)"
       gradientUnits="userSpaceOnUse">
      <stop
         id="stop4862"
         offset="0%"
         stop-color="#41873F" />
      <stop
         id="stop4864"
         offset="32.88%"
         stop-color="#418B3D" />
      <stop
         id="stop4866"
         offset="63.52%"
         stop-color="#419637" />
      <stop
         id="stop4868"
         offset="93.19%"
         stop-color="#3FA92D" />
      <stop
         id="stop4870"
         offset="100%"
         stop-color="#3FAE2A" />
    </linearGradient>
  </defs>
  <sodipodi:namedview
     id="base"
     pagecolor="#ffffff"
     bordercolor="#666666"
     borderopacity="1.0"
     inkscape:pageopacity="0.0"
     inkscape:pageshadow="2"
     inkscape:zoom="0.35355339"
     inkscape:cx="-132.85713"
     inkscape:cy="655.61145"
     inkscape:document-units="mm"
     inkscape:current-layer="g4573"
     showgrid="false"
     inkscape:window-width="1920"
     inkscape:window-height="1001"
     inkscape:window-x="-9"
     inkscape:window-y="-9"
     inkscape:window-maximized="1" />
  <metadata
     id="metadata5">
    <rdf:RDF>
      <cc:Work
         rdf:about="">
        <dc:format>image/svg+xml</dc:format>
        <dc:type
           rdf:resource="http://purl.org/dc/dcmitype/StillImage" />
        <dc:title></dc:title>
      </cc:Work>
    </rdf:RDF>
  </metadata>
  <g
     inkscape:label="Layer 1"
     inkscape:groupmode="layer"
     id="layer1" />
  <g
     id="g4573"
     inkscape:groupmode="layer"
     inkscape:label="Layer 1 copy">
    <g
       id="g5025">
      <path
         id="path4875"
         d="m 89.435612,229.81045 c -2.733408,0 -5.285441,-0.7287 -7.656076,-2.00471 l -24.244255,-14.4005 c -3.646652,-2.00628 -1.823326,-2.73499 -0.728695,-3.09934 4.92108,-1.64036 5.832749,-2.00629 10.936804,-4.92109 0.547309,-0.36593 1.277592,-0.18296 1.823325,0.18138 l 18.594468,11.11978 c 0.728695,0.36435 1.640364,0.36435 2.186098,0 L 163.0832,174.57596 c 0.72869,-0.36436 1.09463,-1.09463 1.09463,-2.00473 V 88.534166 c 0,-0.913244 -0.36594,-1.640364 -1.09463,-2.006287 L 90.347281,44.600807 c -0.728696,-0.365923 -1.640365,-0.365923 -2.186098,0 L 15.425266,86.527879 c -0.728708,0.364348 -1.09463,1.276005 -1.09463,2.004712 v 84.037069 c 0,0.73028 0.365922,1.64036 1.09463,2.0063 l 19.870472,11.48411 c 10.755417,5.4684 17.499836,-0.91166 17.499836,-7.29173 V 95.824319 c 0,-1.093055 0.911669,-2.187673 2.187686,-2.187673 h 9.29644 c 1.09463,0 2.187673,0.911656 2.187673,2.187673 v 82.944021 c 0,14.4005 -7.839037,22.78685 -21.510836,22.78685 -4.192397,0 -7.473126,0 -16.771141,-4.55832 L 9.0451946,186.06007 C 4.3054876,183.32666 1.3891187,178.22103 1.3891187,172.75262 V 88.715553 c 0,-5.468403 2.9163689,-10.574038 7.6560759,-13.307458 L 81.779536,33.29808 c 4.558321,-2.552033 10.756993,-2.552033 15.313743,0 l 72.734341,42.110015 c 4.73969,2.73342 7.65765,7.839055 7.65765,13.307458 v 84.037067 c 0,5.46841 -2.91796,10.57404 -7.65765,13.30745 L 97.093279,228.1701 c -2.37065,1.09462 -5.10406,1.64035 -7.65608,1.64035 z m 22.422508,-57.78653 c -31.900334,0 -38.463367,-14.58345 -38.463367,-26.97925 0,-1.09461 0.911669,-2.18767 2.187674,-2.18767 h 9.479413 c 1.093055,0 2.004712,0.72871 2.004712,1.82333 1.458978,9.6608 5.651367,14.4005 24.974538,14.4005 15.31215,0 21.87676,-3.46369 21.87676,-11.66708 0,-4.73971 -1.8249,-8.20183 -25.70481,-10.57246 -19.870471,-2.0063 -32.266253,-6.38007 -32.266253,-22.23954 0,-14.766432 12.397357,-23.517138 33.177923,-23.517138 23.33259,0 34.81829,8.022011 36.27727,25.520268 0,0.54889 -0.18297,1.09463 -0.54731,1.64194 -0.36594,0.36435 -0.91167,0.7287 -1.45898,0.7287 h -9.47942 c -0.91165,0 -1.82332,-0.7287 -2.00471,-1.64037 -2.18767,-10.02513 -7.83903,-13.30743 -22.78685,-13.30743 -16.771141,0 -18.777429,5.83432 -18.777429,10.2081 0,5.28702 2.370638,6.92738 24.974529,9.84375 22.4225,2.91796 32.99655,7.11034 32.99655,22.78685 -0.18298,16.04245 -13.30745,25.1575 -36.46024,25.1575 z"
         inkscape:connector-curvature="0"
         style="fill:#539e43;stroke-width:1.29173958" />
      <g
         style="stroke-width:6.12702513"
         transform="matrix(0.16321134,0,0,0.16321134,149.36516,222.74787)"
         id="g5005">
        <path
           style="fill:#333333;stroke-width:7.91452074"
           inkscape:connector-curvature="0"
           d="m -153.23595,94.590643 c 0,-2.686818 -1.49325,-5.226378 -3.88167,-6.569788 l -63.30041,-36.427056 c -1.04631,-0.598076 -2.23988,-0.896468 -3.43344,-1.046309 h -0.59808 c -1.19357,0 -2.38843,0.448233 -3.43344,1.046309 l -63.30041,36.427056 c -2.38972,1.34341 -3.88168,3.881678 -3.88168,6.569788 l 0.14984,97.935817 c 0,1.34341 0.74663,2.68682 1.9402,3.2849 1.19486,0.74662 2.68681,0.74662 3.73312,0 L -251.62,174.31294 c 2.38843,-1.34341 3.88168,-3.88168 3.88168,-6.5685 v -45.8335 c 0,-2.68682 1.49196,-5.22509 3.88167,-6.5685 l 15.97366,-9.25661 c 1.19486,-0.74662 2.53827,-1.04631 3.88167,-1.04631 1.34341,0 2.68682,0.29969 3.73313,1.04631 l 15.97365,9.25661 c 2.38972,1.34341 3.88168,3.88039 3.88168,6.5685 v 45.8335 c 0,2.68682 1.49325,5.22509 3.88168,6.5685 l 37.62191,21.49842 c 1.19486,0.74662 2.68682,0.74662 3.88168,0 1.19486,-0.59808 1.94149,-1.94149 1.94149,-3.2849 z M 151.02428,-40.22176 c -1.19357,-0.598076 -2.68682,-0.598076 -3.73313,0 -1.19357,0.746625 -1.9402,1.940193 -1.9402,3.283602 v 97.041937 c 0,0.895176 -0.44694,1.790351 -1.3434,2.388427 -0.89518,0.446942 -1.79165,0.446942 -2.68682,0 l -15.8251,-9.106765 a 7.6948928,7.6948928 0 0 0 -7.61481,0 L 54.580413,89.96234 c -2.388426,1.343409 -3.881677,3.881678 -3.881677,6.568496 v 73.003954 c 0,2.68682 1.493251,5.22638 3.881677,6.56979 l 63.300407,36.5769 a 7.6948928,7.6948928 0 0 0 7.61481,0 l 63.3004,-36.5769 c 2.38843,-1.34341 3.88168,-3.88168 3.88168,-6.56979 V -12.453234 c 0,-2.83666 -1.49325,-5.373637 -3.88168,-6.718338 L 151.02557,-40.22176 Z m -5.82188,185.72115 c 0,0.74663 -0.29839,1.34341 -0.89646,1.6418 l -21.64697,12.54021 a 2.2140417,2.2140417 0 0 1 -1.94149,0 L 99.070509,147.14119 c -0.598076,-0.29839 -0.896468,-1.04501 -0.896468,-1.6418 v -25.08171 c 0,-0.74662 0.298392,-1.3434 0.896468,-1.6418 l 21.646971,-12.5415 a 2.2140417,2.2140417 0 0 1 1.94149,0 l 21.64697,12.5415 c 0.59807,0.2971 0.89646,1.04502 0.89646,1.6418 z M 361.67729,119.8209 c 2.38972,-1.34341 3.73313,-3.88168 3.73313,-6.56979 V 95.485819 c 0,-2.686819 -1.49325,-5.225087 -3.73313,-6.568496 L 298.82512,52.490266 a 7.6948928,7.6948928 0 0 0 -7.61351,0 L 227.9112,89.065873 c -2.38972,1.343409 -3.88168,3.881677 -3.88168,6.569787 v 73.00396 c 0,2.68681 1.49196,5.22508 3.88168,6.56849 l 62.85217,35.83027 c 2.38972,1.34341 5.22509,1.34341 7.46497,0 l 38.06885,-21.19744 c 1.19486,-0.59808 1.94149,-1.94149 1.94149,-3.2849 0,-1.34341 -0.74663,-2.68681 -1.94149,-3.28489 l -63.59879,-36.5769 c -1.19357,-0.74533 -1.9402,-1.94019 -1.9402,-3.2836 v -22.84183 c 0,-1.34341 0.74663,-2.68682 1.9402,-3.2849 l 19.85662,-11.34664 a 3.6439974,3.6439974 0 0 1 3.88167,0 l 19.85533,11.34664 c 1.19486,0.74663 1.94149,1.9402 1.94149,3.2849 v 17.91513 c 0,1.34341 0.74662,2.68682 1.94019,3.28361 1.19486,0.74662 2.68682,0.74662 3.88168,0 z"
           id="path4877" />
        <path
           style="fill:#539e43;stroke-width:7.91452074"
           inkscape:connector-curvature="0"
           d="m 294.04827,116.38746 a 1.3563266,1.3563266 0 0 1 1.49196,0 l 12.09326,7.01673 c 0.44824,0.2971 0.74663,0.74533 0.74663,1.34341 v 14.03345 c 0,0.59679 -0.29839,1.04502 -0.74663,1.34341 l -12.09326,7.01673 a 1.3563266,1.3563266 0 0 1 -1.49196,0 L 281.955,140.12446 c -0.44823,-0.29839 -0.74662,-0.74662 -0.74662,-1.34341 V 124.7476 c 0,-0.59808 0.29839,-1.04631 0.74662,-1.34341 z"
           id="path4879" />
        <g
           style="fill:none;stroke-width:6.12702513"
           transform="matrix(1.2917396,0,0,1.2917396,-122.18253,50.39894)"
           id="g4906">
          <mask
             id="c"
             fill="#fff">
            <use
               height="100%"
               width="100%"
               y="0"
               x="0"
               xlink:href="#a"
               id="use4881" />
          </mask>
          <use
             height="100%"
             width="100%"
             y="0"
             x="0"
             style="fill:url(#b);stroke-width:6.12702513"
             xlink:href="#a"
             id="use4884" />
          <g
             style="stroke-width:6.12702513"
             mask="url(#c)"
             id="g4890">
            <path
               style="stroke-width:6.12702513"
               inkscape:connector-curvature="0"
               d="M 51.893,1.85 3.121,29.933 C 1.27,30.974 0,32.94 0,35.02 v 56.286 c 0,1.387 0.578,2.658 1.502,3.698 L 56.285,1.156 C 54.898,0.925 53.28,1.04 51.893,1.849 Z m 4.739,123.203 c 0.462,-0.116 0.925,-0.347 1.387,-0.578 L 106.792,96.39 c 1.85,-1.04 3.005,-3.005 3.005,-5.085 V 35.019 c 0,-1.502 -0.694,-3.005 -1.734,-4.045 l -51.43,94.079 z"
               id="path4886" />
            <path
               style="fill:url(#d);stroke-width:6.12702513"
               inkscape:connector-curvature="0"
               d="M 106.676,29.934 57.788,1.85 A 8.025,8.025 0 0 0 56.285,1.272 L 1.502,95.12 a 6.082,6.082 0 0 0 1.619,1.387 l 48.888,28.085 c 1.387,0.809 3.005,1.04 4.507,0.577 l 51.432,-94.078 c -0.347,-0.462 -0.81,-0.81 -1.272,-1.156 z"
               id="path4888" />
          </g>
          <g
             style="stroke-width:6.12702513"
             mask="url(#c)"
             id="g4904">
            <path
               style="stroke-width:6.12702513"
               inkscape:connector-curvature="0"
               d="M 109.797,91.305 V 35.019 c 0,-2.08 -1.271,-4.045 -3.12,-5.085 L 57.786,1.85 A 5.106,5.106 0 0 0 55.938,1.157 l 53.511,91.42 c 0.231,-0.347 0.347,-0.809 0.347,-1.271 z M 3.12,29.934 C 1.272,30.974 0,32.94 0,35.02 v 56.286 c 0,2.08 1.387,4.045 3.12,5.085 l 48.889,28.085 c 1.156,0.693 2.427,0.925 3.814,0.693 L 3.467,29.818 3.121,29.934 Z"
               id="path4892" />
            <path
               style="fill:url(#e);fill-rule:evenodd;stroke-width:6.12702513"
               inkscape:connector-curvature="0"
               d="m 50.391,0.809 -0.693,0.347 h 0.924 z"
               transform="translate(0,-9.246)"
               id="path4894" />
            <path
               style="fill:url(#f);fill-rule:evenodd;stroke-width:6.12702513"
               inkscape:connector-curvature="0"
               d="m 106.792,105.636 c 1.387,-0.809 2.427,-2.196 2.89,-3.698 L 56.053,10.402 c -1.387,-0.231 -2.89,-0.116 -4.16,0.693 L 3.351,39.065 55.706,134.53 a 8.057,8.057 0 0 0 2.196,-0.693 l 48.889,-28.2 z"
               transform="translate(0,-9.246)"
               id="path4896" />
            <path
               style="fill:url(#g);fill-rule:evenodd;stroke-width:6.12702513"
               inkscape:connector-curvature="0"
               d="m 111.3,104.712 -0.347,-0.578 v 0.809 l 0.346,-0.231 z"
               transform="translate(0,-9.246)"
               id="path4898" />
            <path
               style="fill:url(#h);fill-rule:evenodd;stroke-width:6.12702513"
               inkscape:connector-curvature="0"
               d="m 106.792,105.636 -48.773,28.085 a 6.973,6.973 0 0 1 -2.196,0.693 l 0.925,1.734 54.089,-31.32 v -0.694 l -1.387,-2.312 c -0.231,1.618 -1.271,3.005 -2.658,3.814 z"
               transform="translate(0,-9.246)"
               id="path4900" />
            <path
               style="fill:url(#i);fill-rule:evenodd;stroke-width:6.12702513"
               inkscape:connector-curvature="0"
               d="m 106.792,105.636 -48.773,28.085 a 6.973,6.973 0 0 1 -2.196,0.693 l 0.925,1.734 54.089,-31.32 v -0.694 l -1.387,-2.312 c -0.231,1.618 -1.271,3.005 -2.658,3.814 z"
               transform="translate(0,-9.246)"
               id="path4902" />
          </g>
        </g>
      </g>
    </g>
  </g>
</svg>
