<?xml version="1.0" encoding="UTF-8" standalone="no"?>
<!-- Created with Inkscape (http://www.inkscape.org/) -->

<svg
   xmlns:dc="http://purl.org/dc/elements/1.1/"
   xmlns:cc="http://creativecommons.org/ns#"
   xmlns:rdf="http://www.w3.org/1999/02/22-rdf-syntax-ns#"
   xmlns:svg="http://www.w3.org/2000/svg"
   xmlns="http://www.w3.org/2000/svg"
   xmlns:sodipodi="http://sodipodi.sourceforge.net/DTD/sodipodi-0.dtd"
   xmlns:inkscape="http://www.inkscape.org/namespaces/inkscape"
   width="207.31061mm"
   height="233.59906mm"
   viewBox="0 0 207.31061 233.59906"
   version="1.1"
   id="svg8"
   sodipodi:docname="nodejsLogo.svg"
   inkscape:version="0.92.4 (5da689c313, 2019-01-14)">
  <defs
     id="defs2">
    <linearGradient
       id="b"
       y2="105.42219"
       x2="32.862076"
       y1="21.346527"
       x1="79.822205"
       gradientTransform="scale(0.93682488,1.0674354)"
       gradientUnits="userSpaceOnUse">
      <stop
         id="stop4805"
         offset="0%"
         stop-color="#41873F" />
      <stop
         id="stop4807"
         offset="32.88%"
         stop-color="#418B3D" />
      <stop
         id="stop4809"
         offset="63.52%"
         stop-color="#419637" />
      <stop
         id="stop4811"
         offset="93.19%"
         stop-color="#3FA92D" />
      <stop
         id="stop4813"
         offset="100%"
         stop-color="#3FAE2A" />
    </linearGradient>
    <path
       d="m 57.903,1.85 a 5.957,5.957 0 0 0 -5.894,0 L 3.352,29.933 c -1.85,1.04 -2.89,3.005 -2.89,5.085 v 56.286 c 0,2.08 1.156,4.045 2.89,5.085 l 48.657,28.085 a 5.957,5.957 0 0 0 5.894,0 l 48.658,-28.085 c 1.849,-1.04 2.89,-3.005 2.89,-5.085 V 35.019 c 0,-2.08 -1.157,-4.045 -2.89,-5.085 z"
       id="a"
       inkscape:connector-curvature="0" />
    <linearGradient
       id="d"
       y2="-19.864828"
       x2="184.67395"
       y1="64.594604"
       x1="51.368862"
       gradientTransform="scale(0.92602084,1.0798893)"
       gradientUnits="userSpaceOnUse">
      <stop
         id="stop4817"
         offset="13.76%"
         stop-color="#41873F" />
      <stop
         id="stop4819"
         offset="40.32%"
         stop-color="#54A044" />
      <stop
         id="stop4821"
         offset="71.36%"
         stop-color="#66B848" />
      <stop
         id="stop4823"
         offset="90.81%"
         stop-color="#6CC04A" />
    </linearGradient>
    <linearGradient
       id="e"
       y2="1.3961854"
       x2="60.624519"
       y1="1.3961854"
       x1="5.4630942"
       gradientTransform="scale(1.6318162,0.6128141)"
       gradientUnits="userSpaceOnUse">
      <stop
         id="stop4826"
         offset="9.192%"
         stop-color="#6CC04A" />
      <stop
         id="stop4828"
         offset="28.64%"
         stop-color="#66B848" />
      <stop
         id="stop4830"
         offset="59.68%"
         stop-color="#54A044" />
      <stop
         id="stop4832"
         offset="86.24%"
         stop-color="#41873F" />
    </linearGradient>
    <linearGradient
       id="f"
       y2="66.989662"
       x2="120.27905"
       y1="66.989662"
       x1="-1.4223322"
       gradientTransform="scale(0.92514783,1.0809083)"
       gradientUnits="userSpaceOnUse">
      <stop
         id="stop4835"
         offset="9.192%"
         stop-color="#6CC04A" />
      <stop
         id="stop4837"
         offset="28.64%"
         stop-color="#66B848" />
      <stop
         id="stop4839"
         offset="59.68%"
         stop-color="#54A044" />
      <stop
         id="stop4841"
         offset="86.24%"
         stop-color="#41873F" />
    </linearGradient>
    <linearGradient
       id="g"
       y2="68.39164"
       x2="169.56171"
       y1="68.39164"
       x1="117.94696"
       gradientTransform="scale(0.65492335,1.5268962)"
       gradientUnits="userSpaceOnUse">
      <stop
         id="stop4844"
         offset="9.192%"
         stop-color="#6CC04A" />
      <stop
         id="stop4846"
         offset="28.64%"
         stop-color="#66B848" />
      <stop
         id="stop4848"
         offset="59.68%"
         stop-color="#54A044" />
      <stop
         id="stop4850"
         offset="86.24%"
         stop-color="#41873F" />
    </linearGradient>
    <linearGradient
       id="h"
       y2="150.7515"
       x2="87.897064"
       y1="150.7515"
       x1="-1.0387961"
       gradientTransform="scale(1.2659747,0.78990523)"
       gradientUnits="userSpaceOnUse">
      <stop
         id="stop4853"
         offset="9.192%"
         stop-color="#6CC04A" />
      <stop
         id="stop4855"
         offset="28.64%"
         stop-color="#66B848" />
      <stop
         id="stop4857"
         offset="59.68%"
         stop-color="#54A044" />
      <stop
         id="stop4859"
         offset="86.24%"
         stop-color="#41873F" />
    </linearGradient>
    <linearGradient
       id="i"
       y2="216.51321"
       x2="46.003895"
       y1="37.182247"
       x1="100.85387"
       gradientTransform="scale(1.2659747,0.78990523)"
       gradientUnits="userSpaceOnUse">
      <stop
         id="stop4862"
         offset="0%"
         stop-color="#41873F" />
      <stop
         id="stop4864"
         offset="32.88%"
         stop-color="#418B3D" />
      <stop
         id="stop4866"
         offset="63.52%"
         stop-color="#419637" />
      <stop
         id="stop4868"
         offset="93.19%"
         stop-color="#3FA92D" />
      <stop
         id="stop4870"
         offset="100%"
         stop-color="#3FAE2A" />
    </linearGradient>
  </defs>
  <sodipodi:namedview
     id="base"
     pagecolor="#ffffff"
     bordercolor="#666666"
     borderopacity="1.0"
     inkscape:pageopacity="0.0"
     inkscape:pageshadow="2"
     inkscape:zoom="0.35355339"
     inkscape:cx="-263.97235"
     inkscape:cy="534.60277"
     inkscape:document-units="mm"
     inkscape:current-layer="g4573"
     showgrid="false"
     inkscape:window-width="1920"
     inkscape:window-height="1001"
     inkscape:window-x="-9"
     inkscape:window-y="-9"
     inkscape:window-maximized="1"
     fit-margin-top="0"
     fit-margin-left="0"
     fit-margin-right="0"
     fit-margin-bottom="0" />
  <metadata
     id="metadata5">
    <rdf:RDF>
      <cc:Work
         rdf:about="">
        <dc:format>image/svg+xml</dc:format>
        <dc:type
           rdf:resource="http://purl.org/dc/dcmitype/StillImage" />
        <dc:title></dc:title>
      </cc:Work>
    </rdf:RDF>
  </metadata>
  <g
     inkscape:label="Layer 1"
     inkscape:groupmode="layer"
     id="layer1"
     transform="translate(-1.3891187,-31.384054)" />
  <g
     id="g4573"
     inkscape:groupmode="layer"
     inkscape:label="Layer 1 copy"
     transform="translate(-1.3891187,-31.384054)">
    <path
       style="fill:#539e43;stroke-width:1.29173958"
       inkscape:connector-curvature="0"
       d="m 105.04256,264.98312 c -3.21793,0 -6.22233,-0.85787 -9.013179,-2.36007 l -28.541744,-16.9531 c -4.29305,-2.36191 -2.146525,-3.21979 -0.857862,-3.64872 5.793381,-1.93113 6.866651,-2.36192 12.87544,-5.79339 0.644324,-0.4308 1.504056,-0.2154 2.146524,0.21353 l 21.890491,13.09085 c 0.85786,0.42893 1.93113,0.42893 2.5736,0 l 85.62894,-49.57435 c 0.85786,-0.42895 1.28866,-1.28866 1.28866,-2.36008 V 98.66448 c 0,-1.075124 -0.4308,-1.931132 -1.28866,-2.361918 L 106.11583,46.943581 c -0.85787,-0.430785 -1.93114,-0.430785 -2.5736,0 L 17.913285,96.302562 c -0.857877,0.428932 -1.288662,1.502187 -1.288662,2.360064 v 98.933314 c 0,0.85973 0.430785,1.93112 1.288662,2.36193 l 23.392672,13.51976 c 12.661901,6.43772 20.601822,-1.07326 20.601822,-8.58425 v -97.64651 c 0,-1.28681 1.07327,-2.57545 2.575471,-2.57545 h 10.944309 c 1.288662,0 2.575455,1.07325 2.575455,2.57545 v 97.64651 c 0,16.95311 -9.228569,26.826 -25.323804,26.826 -4.935533,0 -8.797797,0 -19.74396,-5.36631 L 10.402295,213.47763 C 4.8224373,210.2597 1.3891187,204.24906 1.3891187,197.81133 V 98.878019 c 0,-6.437721 3.4333186,-12.448371 9.0131763,-15.666311 L 96.029381,33.637356 c 5.366319,-3.004402 12.663759,-3.004402 18.028229,0 l 85.62708,49.574352 c 5.57984,3.21794 9.01503,9.22859 9.01503,15.666311 v 98.933311 c 0,6.43773 -3.43519,12.44837 -9.01503,15.6663 L 114.05761,263.052 c -2.79087,1.28865 -6.0088,1.93112 -9.01318,1.93112 z m 26.39707,-68.02966 c -37.554919,0 -45.281302,-17.16848 -45.281302,-31.76154 0,-1.28864 1.073269,-2.57545 2.575456,-2.57545 h 11.159715 c 1.286811,0 2.360061,0.85788 2.360061,2.14653 1.7176,11.37325 6.65312,16.9531 29.40148,16.9531 18.02635,0 25.75459,-4.07765 25.75459,-13.73516 0,-5.57986 -2.14838,-9.65567 -30.2612,-12.44651 -23.39267,-2.36193 -37.9857,-7.51099 -37.9857,-26.18168 0,-17.3839 14.59489,-27.68574 39.05898,-27.68574 27.46847,0 40.99011,9.44398 42.7077,30.04394 0,0.64619 -0.2154,1.28866 -0.64432,1.93299 -0.43081,0.42893 -1.07327,0.85787 -1.7176,0.85787 h -11.15972 c -1.07325,0 -2.14652,-0.85787 -2.36006,-1.93114 -2.57546,-11.80217 -9.22856,-15.66628 -26.826,-15.66628 -19.74396,0 -22.10588,6.8685 -22.10588,12.01757 0,6.22418 2.79085,8.15531 29.40146,11.58863 26.39707,3.43519 38.84545,8.37071 38.84545,26.826 -0.21541,18.8861 -15.6663,29.61687 -42.92311,29.61687 z"
       id="path4875" />
  </g>
</svg>
