<?xml version="1.0" standalone="no"?>
<!DOCTYPE svg PUBLIC "-//W3C//DTD SVG 20010904//EN"
 "http://www.w3.org/TR/2001/REC-SVG-20010904/DTD/svg10.dtd">
<svg version="1.0" xmlns="http://www.w3.org/2000/svg"
 width="280.000000pt" height="280.000000pt" viewBox="0 0 280.000000 280.000000"
 preserveAspectRatio="xMidYMid meet">
<metadata>
Created by potrace 1.11, written by Peter Selinger 2001-2013
</metadata>
<g transform="translate(0.000000,280.000000) scale(0.100000,-0.100000)"
fill="#000000" stroke="none">
<path d="M2655 2362 c-11 -2 -25 -9 -32 -14 -7 -5 -16 -7 -21 -4 -4 3 -51 -17
-103 -43 -53 -27 -112 -54 -133 -61 -85 -28 -328 -241 -684 -600 -169 -171
-174 -174 -168 -136 4 21 9 42 12 47 2 5 7 28 9 51 3 24 7 66 11 93 4 28 12
91 19 140 24 185 5 298 -68 406 -34 51 -51 67 -90 82 -45 19 -51 19 -114 3
-37 -9 -74 -22 -82 -30 -9 -7 -34 -19 -56 -26 -92 -30 -103 -43 -235 -281
-120 -217 -140 -253 -178 -321 -10 -18 -38 -69 -62 -113 -154 -283 -242 -425
-447 -716 -150 -215 -183 -267 -183 -290 0 -20 49 -78 78 -93 40 -20 109 -26
123 -10 7 9 17 11 28 5 13 -8 25 1 57 42 33 43 46 52 73 53 23 1 40 10 58 30
13 16 34 40 46 54 40 46 125 165 138 193 7 15 16 27 20 27 4 0 23 25 44 55 20
30 40 55 46 55 5 0 9 7 9 15 0 22 82 132 104 138 10 3 16 10 13 15 -4 4 1 21
9 36 7 16 14 35 14 42 0 8 9 23 19 33 11 11 30 42 43 70 12 28 27 51 33 51 5
0 11 12 12 26 1 31 33 70 33 41 0 -9 -12 -66 -26 -125 -14 -59 -27 -114 -29
-122 -12 -51 -75 -240 -129 -390 -71 -198 -71 -192 2 -269 36 -37 40 -39 75
-31 21 4 44 13 51 19 8 7 18 11 22 10 5 -1 16 0 24 4 15 6 53 14 105 24 17 3
37 13 45 23 8 9 36 31 63 49 26 18 47 38 47 46 0 7 13 24 28 37 20 17 28 33
29 59 1 41 28 98 55 117 10 7 26 28 36 46 26 51 211 256 230 256 4 0 13 14 19
30 14 38 35 40 24 3 -5 -16 -20 -54 -35 -86 -21 -49 -65 -174 -82 -237 -2 -8
-15 -55 -29 -105 -14 -49 -27 -118 -30 -153 -4 -53 -1 -66 15 -82 11 -11 20
-24 20 -29 0 -5 16 -19 35 -31 35 -22 38 -22 138 -2 26 5 47 7 47 5 0 -2 7 3
16 12 10 10 23 13 33 9 21 -10 84 -9 107 1 11 5 39 9 64 11 65 4 87 9 177 40
54 19 85 35 92 49 5 11 10 14 10 8 1 -20 19 -15 42 11 12 14 27 22 34 20 23
-9 78 69 82 115 4 45 -3 49 -47 26 -33 -17 -163 -54 -202 -57 -16 -1 -28 -6
-28 -10 0 -4 -16 -4 -35 -1 -26 4 -41 1 -55 -12 -19 -18 -21 -18 -39 1 -18 18
-18 20 0 55 13 25 15 39 7 47 -7 7 -1 32 22 84 17 40 38 87 45 103 29 71 41
87 74 107 20 12 37 22 39 23 1 2 -3 14 -9 29 -11 22 -9 29 8 49 10 12 19 29
18 37 0 8 9 32 22 52 13 21 23 41 23 45 0 5 9 26 21 47 11 21 18 47 16 57 -3
11 0 22 7 27 23 13 47 59 40 76 -4 10 -1 16 8 16 26 0 51 26 51 53 0 16 5 27
13 27 8 0 16 16 20 39 4 25 17 50 35 67 16 15 29 33 29 40 0 6 7 17 15 24 8 7
15 20 15 29 0 10 16 34 35 55 19 21 32 42 29 47 -3 5 0 9 5 9 6 0 11 8 11 18
0 11 8 27 19 36 10 9 21 30 24 45 3 16 20 52 37 81 29 49 30 55 21 106 -6 30
-17 62 -26 70 -8 9 -15 19 -15 22 0 13 -35 28 -55 24z"/>
</g>
</svg>
