<?xml version="1.0" standalone="no"?>
<!DOCTYPE svg PUBLIC "-//W3C//DTD SVG 20010904//EN"
 "http://www.w3.org/TR/2001/REC-SVG-20010904/DTD/svg10.dtd">
<svg version="1.0" xmlns="http://www.w3.org/2000/svg"
 width="1312.000000pt" height="1312.000000pt" viewBox="0 0 1312.000000 1312.000000"
 preserveAspectRatio="xMidYMid meet">
<metadata>
Created by potrace 1.11, written by Peter Selinger 2001-2013
</metadata>
<g transform="translate(0.000000,1312.000000) scale(0.100000,-0.100000)"
fill="#000000" stroke="none">
<path d="M2542 11509 c-26 -9 -60 -22 -77 -29 -16 -6 -32 -11 -35 -11 -3 0
-15 -7 -27 -15 -13 -8 -23 -11 -23 -7 0 5 -4 2 -9 -5 -4 -7 -18 -14 -29 -15
-12 -1 -22 -4 -22 -8 0 -4 -20 -15 -45 -25 -25 -9 -45 -21 -45 -27 0 -6 -3 -7
-7 -4 -5 6 -170 -77 -183 -92 -3 -3 -15 -12 -27 -18 -48 -27 -67 -38 -77 -46
-31 -22 -117 -84 -136 -97 -12 -8 -28 -20 -34 -25 -6 -6 -45 -38 -86 -72 -111
-90 -277 -257 -344 -348 -17 -22 -32 -42 -35 -45 -10 -9 -51 -69 -51 -74 0 -3
-15 -29 -33 -58 -18 -29 -43 -75 -56 -103 -14 -27 -29 -53 -35 -57 -6 -4 -8
-8 -3 -8 4 0 -1 -17 -12 -37 -42 -84 -99 -292 -116 -428 -12 -92 -13 -100 -19
-160 -20 -200 -29 -430 -51 -1245 -11 -382 -23 -577 -42 -665 -2 -11 -7 -33
-9 -49 -10 -55 -92 -236 -106 -236 -5 0 -6 -4 -3 -10 3 -5 1 -10 -4 -10 -6 0
-11 -6 -11 -12 0 -7 -16 -30 -35 -51 -19 -21 -35 -41 -35 -44 0 -3 -10 -14
-22 -25 -13 -11 -34 -29 -48 -41 -68 -60 -206 -135 -280 -152 -139 -33 -282
-84 -296 -107 -8 -12 -13 -149 -19 -518 -4 -243 -2 -306 10 -359 17 -71 43
-121 62 -121 7 0 13 -4 13 -8 0 -4 15 -9 33 -10 17 -2 50 -5 72 -6 54 -5 118
-17 130 -26 6 -3 29 -12 53 -20 23 -7 42 -17 42 -22 0 -4 3 -7 8 -6 15 4 126
-76 186 -135 35 -34 81 -87 102 -117 52 -71 97 -150 87 -150 -4 0 -3 -4 3 -8
12 -8 47 -92 39 -92 -3 0 -2 -8 4 -17 5 -10 11 -36 15 -58 3 -22 8 -51 10 -65
4 -23 8 -61 21 -245 6 -80 13 -230 20 -460 14 -488 24 -759 30 -865 13 -216
15 -246 19 -279 3 -20 8 -67 12 -106 7 -79 7 -76 28 -170 20 -85 60 -200 112
-320 10 -22 19 -42 20 -45 12 -35 30 -70 36 -70 4 0 8 -6 8 -14 0 -16 100
-189 112 -194 5 -2 8 -10 8 -18 0 -8 4 -14 9 -14 5 0 12 -8 15 -17 3 -10 16
-29 28 -43 13 -14 36 -43 52 -65 36 -48 237 -250 285 -285 18 -14 43 -33 55
-43 11 -11 46 -35 76 -55 30 -20 61 -42 68 -49 7 -7 17 -13 22 -13 5 0 15 -6
22 -12 14 -14 90 -57 148 -86 19 -9 37 -20 40 -24 5 -6 43 -23 62 -27 4 -1 33
-15 64 -31 31 -17 62 -30 70 -30 8 0 14 -5 14 -11 0 -5 4 -8 9 -4 5 3 15 0 23
-7 7 -7 20 -14 28 -16 8 -2 42 -14 75 -27 78 -31 119 -46 125 -47 3 -1 19 -7
37 -15 46 -19 67 -16 102 13 29 24 79 115 106 194 1 3 4 12 8 20 3 8 13 38 22
65 10 28 20 57 23 65 3 8 6 18 7 23 2 4 3 8 5 10 1 1 3 9 5 17 2 8 26 82 53
165 33 97 47 155 42 165 -14 24 -79 90 -90 90 -5 0 -10 4 -10 8 0 5 -33 31
-73 59 -93 65 -211 175 -268 250 -24 32 -47 60 -50 63 -4 3 -23 37 -44 75 -20
39 -41 76 -47 83 -6 6 -8 12 -4 12 3 0 -4 21 -17 48 -39 77 -77 194 -97 300
-17 88 -22 131 -35 302 -7 97 -23 549 -30 834 -2 108 -7 201 -10 206 -3 6 -1
10 5 10 6 0 8 5 4 12 -4 6 -8 57 -10 112 -2 95 -10 265 -19 421 -2 39 -7 95
-10 125 -4 30 -8 64 -9 75 -5 46 -27 141 -37 158 -5 10 -7 22 -4 27 3 5 1 11
-5 15 -5 3 -10 13 -10 22 0 8 -6 29 -14 46 -8 18 -28 63 -45 100 -17 38 -31
73 -31 78 0 5 -4 9 -10 9 -5 0 -10 6 -10 13 0 12 -114 196 -129 207 -3 3 -25
30 -48 60 -60 78 -192 203 -280 265 -37 27 -129 119 -142 144 -9 16 -3 27 42
73 54 55 115 108 124 108 22 0 254 217 278 260 7 14 25 37 39 52 14 15 26 30
26 33 0 4 14 26 30 50 17 24 30 48 30 53 0 6 3 12 8 14 11 5 72 124 72 141 0
8 4 17 8 19 9 3 71 160 78 198 3 14 9 41 14 60 26 106 46 371 54 690 1 47 5
91 9 98 5 7 3 12 -3 12 -6 0 -9 4 -5 10 3 5 8 94 10 197 8 323 22 679 30 773
2 25 7 88 10 140 3 52 8 102 10 110 2 8 7 44 10 80 8 76 49 262 71 323 34 90
110 235 159 303 50 68 221 228 283 264 14 8 33 20 41 27 9 6 50 37 91 67 73
54 80 64 68 96 -3 8 -13 38 -21 65 -15 47 -95 277 -137 390 -29 79 -62 149
-74 157 -6 4 -7 8 -2 8 15 0 -46 60 -77 76 -35 18 -104 15 -165 -7z"/>
<path d="M10424 11522 c-11 -4 -31 -16 -45 -27 -28 -22 -86 -115 -72 -115 4 0
3 -4 -3 -8 -10 -7 -45 -98 -93 -242 -27 -79 -30 -89 -31 -95 0 -3 -7 -23 -15
-45 -26 -74 -35 -160 -22 -210 9 -37 64 -95 113 -120 16 -8 31 -17 34 -20 3
-3 23 -17 45 -31 87 -57 217 -203 301 -339 51 -83 121 -227 130 -267 1 -6 7
-27 13 -45 13 -41 21 -81 26 -133 3 -22 7 -60 10 -85 23 -182 42 -592 60
-1263 2 -86 7 -162 10 -167 3 -6 1 -10 -5 -10 -6 0 -8 -5 -4 -11 4 -6 8 -41
10 -78 5 -130 14 -286 19 -341 8 -79 23 -186 31 -212 3 -9 7 -27 10 -40 7 -30
9 -39 19 -63 4 -11 21 -56 38 -100 33 -87 136 -294 157 -315 3 -3 21 -27 40
-55 19 -27 39 -55 45 -62 5 -6 26 -30 45 -54 19 -23 52 -58 73 -78 22 -20 56
-52 77 -71 20 -19 71 -61 111 -92 85 -66 179 -154 179 -168 0 -6 -12 -20 -26
-33 -15 -12 -32 -27 -38 -32 -18 -17 -104 -75 -111 -75 -4 0 -12 -6 -19 -12
-7 -7 -28 -24 -47 -38 -46 -33 -197 -185 -234 -235 -17 -22 -33 -42 -36 -45
-10 -9 -98 -148 -111 -174 -6 -14 -15 -26 -20 -26 -4 0 -7 -3 -6 -7 1 -5 -17
-46 -39 -93 -68 -144 -102 -243 -109 -325 -2 -22 -6 -60 -9 -85 -7 -61 -11
-116 -20 -245 -11 -158 -13 -202 -16 -277 -1 -46 -5 -65 -13 -61 -8 5 -8 3 0
-8 6 -8 9 -34 8 -59 -3 -51 -11 -261 -19 -509 -12 -407 -28 -720 -40 -801 -2
-14 -7 -47 -11 -75 -3 -27 -8 -53 -10 -56 -2 -3 -6 -20 -9 -38 -3 -18 -14 -55
-25 -83 -11 -28 -17 -55 -15 -59 3 -4 2 -9 -3 -11 -4 -1 -23 -39 -42 -83 -19
-44 -37 -82 -40 -85 -3 -3 -12 -18 -20 -35 -8 -16 -17 -32 -20 -35 -3 -3 -23
-32 -45 -65 -57 -85 -197 -223 -290 -285 -87 -59 -152 -122 -162 -158 -6 -24
11 -121 29 -172 4 -8 16 -49 28 -90 12 -41 38 -120 57 -175 19 -55 36 -107 38
-115 9 -32 32 -90 38 -96 4 -4 7 -16 7 -26 0 -10 5 -18 10 -18 6 0 10 -8 10
-19 0 -55 124 -47 273 18 26 11 48 20 50 19 1 0 22 9 47 22 25 13 45 22 45 21
0 -2 29 11 65 27 36 17 67 31 70 31 3 0 47 23 98 50 51 28 97 51 102 51 4 0
10 3 12 8 2 4 32 25 68 46 36 22 67 43 70 46 3 4 32 25 65 47 33 22 72 52 87
66 15 14 38 32 50 41 35 24 188 177 228 226 19 24 42 51 50 60 8 9 28 36 45
60 16 25 33 47 36 50 11 9 111 188 109 196 -1 4 2 10 7 13 9 5 55 99 88 176 6
17 18 44 25 60 16 36 11 22 55 168 19 65 37 137 40 159 3 22 7 49 10 61 2 12
7 42 10 67 3 25 7 54 9 65 2 11 7 65 10 120 4 55 9 121 12 147 5 61 11 237 29
858 3 107 8 203 11 213 3 9 0 17 -6 17 -6 0 -8 5 -4 12 5 7 9 33 10 58 2 25 6
86 9 135 4 50 7 118 8 152 1 35 4 63 8 63 3 0 5 10 6 23 0 30 19 142 23 142 1
0 3 11 5 25 6 53 48 164 81 216 19 30 58 77 87 105 54 53 169 139 185 139 5 0
15 7 22 15 7 8 21 15 30 15 10 0 20 4 22 10 5 16 145 60 211 66 88 7 89 8 119
27 32 22 57 72 66 135 7 47 8 458 2 729 -3 133 -8 166 -24 164 -3 -1 -7 -1 -8
0 -5 1 -33 7 -63 12 -16 3 -45 10 -63 16 -32 9 -36 11 -57 16 -117 30 -281 99
-336 142 -47 35 -169 165 -169 179 0 8 -3 14 -7 14 -5 0 -13 10 -19 23 -6 12
-25 49 -42 82 -23 45 -46 100 -43 100 0 0 -4 18 -10 40 -9 42 -19 124 -24 210
-2 28 -4 50 -5 50 -1 0 -6 148 -14 417 -3 92 -7 172 -11 177 -3 5 -1 12 5 16
6 4 8 11 5 16 -4 5 -8 80 -11 167 -18 650 -48 1017 -95 1172 -5 19 -12 45 -15
58 -6 29 -52 170 -64 197 -5 11 -21 49 -36 85 -25 63 -93 198 -135 270 -32 55
-141 204 -156 213 -7 4 -13 12 -13 17 0 5 -20 30 -45 56 -25 25 -45 51 -45 57
0 5 -2 8 -5 5 -3 -3 -27 16 -53 41 -71 68 -124 114 -153 133 -14 9 -33 24 -42
32 -8 9 -57 42 -109 75 -51 33 -97 64 -103 68 -5 4 -26 16 -45 25 -19 10 -42
22 -50 28 -55 36 -410 197 -486 220 -50 15 -113 20 -140 12z"/>
<path d="M4030 9729 c-33 -9 -60 -13 -60 -10 0 3 -4 2 -8 -4 -4 -5 -25 -18
-46 -28 -42 -20 -134 -88 -178 -132 -16 -15 -28 -24 -28 -20 0 4 -9 -4 -21
-19 -20 -26 -21 -36 -26 -819 -8 -1122 -9 -4686 -2 -4782 4 -44 14 -98 24
-119 25 -58 103 -158 149 -192 44 -31 116 -67 123 -60 3 2 15 -1 28 -8 25 -13
208 -14 255 -1 14 3 32 8 40 10 8 2 15 4 15 5 0 1 7 3 15 5 48 10 130 60 181
110 65 63 84 111 94 240 19 240 24 450 30 1315 12 1795 16 2001 46 2112 9 34
12 37 29 25 11 -6 20 -14 20 -18 0 -3 9 -15 20 -27 11 -12 33 -43 49 -69 49
-80 188 -315 211 -358 12 -22 31 -52 41 -67 11 -14 19 -29 19 -32 0 -4 55
-107 123 -229 68 -122 127 -229 130 -237 4 -8 15 -28 25 -45 10 -16 42 -75 72
-130 29 -55 66 -125 83 -155 44 -84 106 -198 144 -270 20 -36 44 -80 55 -97
11 -18 16 -33 11 -33 -4 0 -3 -4 3 -8 6 -4 37 -56 69 -117 70 -134 221 -409
247 -450 10 -16 24 -42 30 -57 7 -16 15 -28 19 -28 4 0 12 -13 19 -30 7 -16
16 -30 21 -30 5 0 9 -5 9 -11 0 -7 16 -34 35 -60 19 -27 35 -53 35 -58 0 -5 3
-11 8 -13 4 -1 23 -23 42 -48 33 -43 104 -116 149 -152 98 -81 282 -104 422
-53 24 9 52 19 62 22 9 3 17 9 17 14 0 5 6 9 13 9 16 0 87 64 87 78 0 7 4 12
8 12 7 0 92 130 146 223 10 17 61 106 113 197 53 91 103 176 111 190 9 14 17
32 19 40 1 8 7 16 12 18 6 2 11 9 11 16 0 6 11 28 25 48 14 20 25 44 25 52 0
8 4 16 8 18 10 4 202 355 202 369 0 5 5 9 11 9 5 0 7 5 4 10 -3 6 -1 10 6 10
7 0 9 3 6 6 -4 4 2 19 12 33 10 14 33 55 51 91 18 36 43 85 57 110 14 25 50
93 81 153 32 59 74 138 94 175 20 37 51 94 68 127 17 33 42 80 56 105 14 25
41 74 60 110 19 36 39 72 44 80 19 32 116 207 133 240 10 19 24 44 30 55 7 11
36 63 66 115 30 52 65 109 78 127 12 17 23 36 23 41 0 5 9 17 19 26 18 17 19
16 25 -11 26 -119 47 -716 50 -1410 0 -171 4 -309 8 -306 5 2 4 -6 -1 -19 -5
-15 -5 -31 0 -41 7 -11 6 -17 0 -17 -7 0 -7 -8 -1 -25 5 -14 6 -25 2 -25 -8 0
-6 -89 2 -97 3 -3 1 -14 -5 -24 -5 -11 -6 -19 -1 -19 10 0 8 -42 -3 -59 -3 -6
-2 -11 3 -11 5 0 7 -17 5 -37 -4 -43 -4 -42 0 -105 2 -29 -1 -48 -7 -48 -7 0
-8 -3 -1 -8 7 -4 11 -169 13 -457 2 -247 4 -555 5 -683 l2 -233 36 -32 c195
-170 271 -208 425 -212 164 -5 259 26 350 112 62 59 137 213 119 243 -3 5 -2
10 4 10 5 0 8 11 6 25 -1 14 1 25 4 25 9 0 10 114 13 1153 2 528 0 961 -5 964
-4 2 -5 9 -1 14 3 6 5 68 4 137 -1 70 -2 292 -3 495 -1 202 -6 367 -10 367 -5
0 -5 6 0 12 10 17 10 118 0 118 -4 0 -5 5 -1 12 10 17 11 58 2 64 -5 3 -5 11
-1 17 8 13 7 153 -2 166 -3 5 -1 12 5 16 6 4 8 11 4 16 -3 6 -8 229 -10 497
-9 1187 -13 1454 -18 1459 -3 3 -1 13 4 23 9 17 -17 45 -129 136 -13 10 -29
25 -36 32 -8 6 -18 12 -24 12 -6 0 -11 4 -11 8 0 5 -24 19 -52 31 -29 12 -62
27 -73 32 -11 5 -46 11 -77 13 -31 2 -61 7 -67 11 -6 3 -11 2 -11 -2 0 -5 -17
-8 -37 -7 -21 0 -42 -2 -48 -5 -5 -3 -21 -7 -35 -8 -14 -2 -34 -8 -45 -13 -11
-5 -41 -18 -67 -29 -69 -29 -138 -99 -216 -219 -72 -111 -205 -339 -263 -452
-18 -36 -35 -67 -38 -70 -4 -3 -23 -39 -44 -80 -67 -130 -108 -205 -118 -214
-5 -6 -9 -18 -9 -27 0 -10 -3 -19 -7 -21 -8 -3 -22 -28 -95 -173 -23 -44 -48
-88 -56 -97 -8 -10 -12 -18 -7 -18 4 0 3 -6 -3 -12 -5 -7 -37 -65 -70 -128
-33 -63 -85 -164 -117 -225 -32 -60 -66 -125 -77 -142 -11 -18 -16 -33 -12
-33 4 0 0 -8 -8 -17 -8 -10 -27 -43 -42 -73 -15 -30 -46 -91 -70 -135 -23 -44
-79 -152 -124 -239 -45 -88 -87 -165 -93 -173 -6 -7 -8 -13 -3 -13 5 0 4 -4
-1 -8 -6 -4 -27 -41 -48 -82 -21 -41 -52 -102 -70 -135 -18 -33 -58 -107 -88
-165 -30 -58 -56 -107 -59 -110 -4 -4 -48 -86 -99 -185 -9 -16 -18 -32 -21
-35 -3 -3 -14 -23 -25 -45 -54 -107 -289 -507 -326 -553 l-18 -24 -26 28 c-48
51 -203 304 -252 409 -10 22 -20 42 -23 45 -3 3 -25 46 -50 95 -25 50 -51 97
-58 107 -7 9 -14 22 -15 30 -2 7 -10 24 -20 38 -9 13 -17 32 -17 41 0 10 -4
19 -9 21 -4 2 -41 68 -82 148 -40 80 -78 148 -84 152 -5 4 -6 8 -1 8 5 0 4 6
-1 13 -6 6 -39 66 -74 132 -34 66 -77 147 -95 180 -18 33 -49 94 -70 135 -21
41 -59 113 -84 160 -85 157 -216 405 -354 670 -77 148 -115 221 -198 379 -21
39 -34 71 -30 71 4 0 2 4 -4 8 -5 4 -27 41 -48 82 -99 193 -201 381 -268 495
-10 17 -26 45 -35 63 -9 17 -20 32 -25 32 -4 0 -8 5 -8 11 0 15 -139 216 -181
262 -19 20 -40 37 -46 37 -7 0 -13 4 -13 8 0 8 -92 63 -115 69 -5 1 -35 10
-65 19 -76 22 -187 23 -260 3z"/>
</g>
</svg>
