<?xml version="1.0" encoding="UTF-8" standalone="no"?>
<!-- Created with Inkscape (http://www.inkscape.org/) -->

<svg
   xmlns:dc="http://purl.org/dc/elements/1.1/"
   xmlns:cc="http://creativecommons.org/ns#"
   xmlns:rdf="http://www.w3.org/1999/02/22-rdf-syntax-ns#"
   xmlns:svg="http://www.w3.org/2000/svg"
   xmlns="http://www.w3.org/2000/svg"
   xmlns:sodipodi="http://sodipodi.sourceforge.net/DTD/sodipodi-0.dtd"
   xmlns:inkscape="http://www.inkscape.org/namespaces/inkscape"
   width="210mm"
   height="297mm"
   viewBox="0 0 210 297"
   version="1.1"
   id="svg8"
   sodipodi:docname="webpackLogo.svg"
   inkscape:version="0.92.4 (5da689c313, 2019-01-14)">
  <defs
     id="defs2" />
  <sodipodi:namedview
     id="base"
     pagecolor="#ffffff"
     bordercolor="#666666"
     borderopacity="1.0"
     inkscape:pageopacity="0.0"
     inkscape:pageshadow="2"
     inkscape:zoom="0.35355339"
     inkscape:cx="101.0014"
     inkscape:cy="655.61145"
     inkscape:document-units="mm"
     inkscape:current-layer="g4573"
     showgrid="false"
     inkscape:window-width="1920"
     inkscape:window-height="1001"
     inkscape:window-x="-9"
     inkscape:window-y="-9"
     inkscape:window-maximized="1" />
  <metadata
     id="metadata5">
    <rdf:RDF>
      <cc:Work
         rdf:about="">
        <dc:format>image/svg+xml</dc:format>
        <dc:type
           rdf:resource="http://purl.org/dc/dcmitype/StillImage" />
        <dc:title></dc:title>
      </cc:Work>
    </rdf:RDF>
  </metadata>
  <g
     inkscape:label="Layer 1"
     inkscape:groupmode="layer"
     id="layer1" />
  <g
     id="g4573"
     inkscape:groupmode="layer"
     inkscape:label="Layer 1 copy">
    <g
       id="g4697"
       transform="matrix(1.0270762,0,0,1.0270762,-4.0898735,-0.16089985)"
       style="stroke-width:0.97363758">
      <path
         style="fill:#8dd4f8;stroke-width:0.97363758"
         d="M 57.663679,229.45428 C 33.12341,215.57607 12.992295,204.16846 12.927868,204.10403 c -0.127945,-0.12794 33.273759,-19.46667 33.622688,-19.46667 0.117837,0 12.734994,6.88272 28.038131,15.29492 l 27.823883,15.29492 v 19.73447 c 0,10.85395 -0.0293,19.7325 -0.0651,19.7301 -0.0358,-0.002 -20.143512,-11.35927 -44.683781,-25.23749 z m 52.625601,5.543 0.0668,-19.75584 27.86217,-15.31671 c 15.3242,-8.42419 28.04026,-15.2638 28.25791,-15.19914 0.86927,0.25828 33.15347,19.07522 33.14097,19.31631 -0.0106,0.20512 -87.83614,50.07824 -89.06736,50.57832 -0.26128,0.10613 -0.31375,-3.8475 -0.26045,-19.62294 z M 74.74066,191.09438 47.198969,175.95619 V 145.9185 c 0,-16.52073 0.06043,-30.0377 0.134297,-30.0377 0.218135,0 54.397464,31.28877 54.754884,31.62115 0.25897,0.24083 0.31295,6.35924 0.26044,29.51721 l -0.0662,29.2134 z m 35.54915,-14.15851 0.0662,-29.31813 27.47658,-15.86112 27.47658,-15.86113 0.0662,29.99442 c 0.0364,16.49693 -0.0222,30.07814 -0.13022,30.18046 -0.24924,0.23606 -54.70808,30.18364 -54.8881,30.18364 -0.0734,0 -0.1037,-13.19316 -0.0673,-29.31814 z M 6.5700919,145.4343 c 0,-29.17015 0.094124,-52.997574 0.2091639,-52.949824 0.1150404,0.04775 7.4985572,4.295811 16.4078152,9.440144 l 16.198653,9.35333 -0.0021,34.1404 -0.0021,34.14041 -14.886822,8.59457 c -8.187641,4.72701 -15.5702448,8.98225 -16.4056766,9.45608 l -1.5189665,0.86152 z m 183.0903881,43.51093 -16.27759,-9.41527 -0.0661,-34.00564 c -0.0525,-27.00833 0.001,-34.05982 0.26044,-34.26897 0.44324,-0.35746 32.43517,-18.814282 32.61154,-18.814282 0.21918,0 0.16387,105.695602 -0.0554,105.813972 -0.10743,0.058 -7.52025,-4.13141 -16.47293,-9.30981 z M 78.712393,124.98313 c -15.112119,-8.73431 -27.499731,-15.96694 -27.528028,-16.07252 -0.0283,-0.10557 12.383724,-7.01662 27.582265,-15.357897 l 27.63371,-15.165952 27.50112,15.119653 c 15.12561,8.315806 27.58381,15.199746 27.68488,15.297626 0.1651,0.1599 -54.4491,31.87117 -55.11884,32.00429 -0.15319,0.0305 -12.642987,-7.09089 -27.755107,-15.8252 z M 26.578421,94.829473 C 17.743868,89.719915 10.594748,85.464762 10.691488,85.373576 10.904653,85.172648 102.17343,33.581285 102.31572,33.581285 c 0.0551,0 0.0702,8.584137 0.0334,19.075862 l -0.0668,19.075859 -29.429891,16.199074 c -16.18644,8.909489 -29.60569,16.19647 -29.820554,16.19329 -0.214864,-0.003 -7.618933,-4.186339 -16.453484,-9.295897 z M 139.91615,87.9072 110.35604,71.6433 110.28923,52.583775 c -0.06,-17.115643 -0.0257,-19.043742 0.33638,-18.904802 0.6924,0.265695 90.86632,51.263309 91.21997,51.589202 0.26415,0.243414 -3.0334,2.253327 -15.58998,9.502378 -8.75875,5.056517 -16.11722,9.240217 -16.35217,9.297107 -0.23494,0.0569 -13.72922,-7.215314 -29.98728,-16.16046 z"
         id="path4701"
         inkscape:connector-curvature="0" />
      <path
         style="fill:#1b77bf;stroke-width:0.97363758"
         d="m 74.74066,190.97943 -27.281249,-15.0037 v -29.91724 c 0,-16.45449 0.05505,-29.91724 0.122327,-29.91724 0.06728,0 12.431743,7.10684 27.47658,15.79298 l 27.354252,15.79299 v 29.13318 c 0,16.02324 -0.0879,29.13082 -0.19533,29.12795 -0.10743,-0.003 -12.471893,-6.75689 -27.47658,-15.00892 z m 35.80958,-14.16414 0.0662,-29.22244 27.21614,-15.7211 c 14.96888,-8.6466 27.30404,-15.72321 27.41147,-15.7258 0.10743,-0.003 0.19533,13.44491 0.19533,29.88333 v 29.88803 l -27.23024,14.97302 c -14.97663,8.23516 -27.34159,15.01225 -27.4777,15.06021 -0.15563,0.0548 -0.22289,-10.75728 -0.18124,-29.13525 z M 100.16646,137.22666 C 96.74643,135.25102 84.308232,128.07134 72.526022,121.27183 L 51.103818,108.90909 78.125514,94.056501 c 14.861932,-8.168923 27.330316,-14.992574 27.707516,-15.163668 0.64386,-0.292047 2.34433,0.600658 27.78752,14.587753 14.90593,8.194364 27.28861,15.035514 27.51706,15.202554 0.40961,0.29952 -4.60178,3.24774 -48.59189,28.58676 l -6.16103,3.54885 z"
         id="path4699"
         inkscape:connector-curvature="0" />
    </g>
  </g>
</svg>
